<ttFont>
          <CharString index="0">
            -95 callsubr
            126 -72 -305 vlineto
            -98 66 -52 109 59 44 10 8 26 vhcurveto
            -102 callsubr
            return
          </CharString>
          <CharString index="1">
            -105 callgsubr
            -13 callsubr
            -26 -40 hvcurveto
            return
          </CharString>
          <CharString index="2">
            rmoveto
            -73 callgsubr
            167 vlineto
            38 318 callsubr
            return
          </CharString>
          <CharString index="3">
            rmoveto
            83 -48 51 -103 -103 -49 -51 -83 -17 3 -19 1 -4 vhcurveto
            72 hlineto
            -1 4 -2 16 18 vvcurveto
            38 16 31 63 63 16 -30 -38 vhcurveto
            -137 vlineto
            -39 -16 -29 -63 -31 -29 6 7 -19 vhcurveto
            74 -73 -254 vlineto
            -94 68 -59 108 346 callgsubr
            vhcurveto
            -74 callsubr
            return
          </CharString>
          <CharString index="4">
            173 callgsubr
            47 36 82 vvcurveto
            74 142 callgsubr
            return
          </CharString>
          <CharString index="5">
            127 callgsubr
            -72 -38 25 60 hvcurveto
            112 vlineto
            -5 20 23 -3 25 hhcurveto
            return
          </CharString>
          <CharString index="6">
            -39 callgsubr
            -98 callgsubr
            return
          </CharString>
          <CharString index="7">
            -24 callgsubr
            -140 vlineto
            -38 -16 -30 -63 -22 -22 4 5 -18 vhcurveto
            return
          </CharString>
          <CharString index="8">
            rmoveto
            -4 -9 -34 -8 -41 hhcurveto
            -63 -24 286 callgsubr
            64 40 34 -8 -4 10 vhcurveto
            return
          </CharString>
          <CharString index="9">
            -38 -16 -28 -52 vhcurveto
            -9 -14 2 -6 hhcurveto
            207 callgsubr
            21 -2 11 hhcurveto
            88 43 53 79 hvcurveto
            return
          </CharString>
          <CharString index="10">
            -183 -90 callsubr
            return
          </CharString>
          <CharString index="11">
            -126 70 423 vlineto
            314 callgsubr
            60 16 -26 -38 vhcurveto
            -173 vlineto
            -41 -16 -25 -62 2 vhcurveto
            -67 vlineto
            2 9 -1 7 hhcurveto
            90 42 48 80 hvcurveto
            178 vlineto
            79 -45 51 -97 254 callsubr
          </CharString>
          <CharString index="12">
            0 9 -100 callsubr
            return
          </CharString>
          <CharString index="13">
            -78 callsubr
            60 12 39 callsubr
            12 27 53 60 8 -27 -41 vhcurveto
            return
          </CharString>
          <CharString index="14">
            17 callgsubr
            93 -79 callsubr
            return
          </CharString>
          <CharString index="15">
            65 vlineto
            -2 -15 -21 -3 -22 hhcurveto
            -13 callgsubr
            return
          </CharString>
          <CharString index="16">
            -78 callgsubr
            -96 -61 33 84 hvcurveto
            return
          </CharString>
          <CharString index="17">
            vlineto
            -75 callsubr
            return
          </CharString>
          <CharString index="18">
            rmoveto
            -3 -13 -24 -5 -29 hhcurveto
            -64 -21 29 39 hvcurveto
            340 151 vlineto
            return
          </CharString>
          <CharString index="19">
            72 -59 callgsubr
            return
          </CharString>
          <CharString index="20">
            rmoveto
            -23 10 -16 30 29 11 16 23 23 -11 16 -29 223 callsubr
            138 hmoveto
            -23 10 -16 30 30 10 16 23 23 -10 16 -30 223 callsubr
            return
          </CharString>
          <CharString index="21">
            -92 callgsubr
            -94 return
          </CharString>
          <CharString index="22">
            -5 34 -13 29 -30 13 rrcurveto
            39 17 11 45 45 vvcurveto
            59 vlineto
            86 -52 53 -112 -43 -32 -6 -8 -25 vhcurveto
            -70 vlineto
            10 30 32 7 38 hhcurveto
            68 25 -29 -45 hvcurveto
            -57 vlineto
            -41 -11 -32 -69 vhcurveto
            -60 -67 60 hlineto
            69 -1 11 -32 -42 vvcurveto
            -69 vlineto
            -45 -26 -29 -67 -37 -42 7 9 -32 vhcurveto
            -68 vlineto
            -9 32 39 -5 40 hhcurveto
            112 52 53 85 hvcurveto
            40 113 -213 72 590 return
          </CharString>
          <CharString index="23">
            -62 286 -451 vlineto
            -107 callgsubr
            return
          </CharString>
          <CharString index="24">
            hhcurveto
            -91 36 callsubr
            47 36 82 vvcurveto
            return
          </CharString>
          <CharString index="25">
            -183 -80 callgsubr
            return
          </CharString>
          <CharString index="26">
            rmoveto
            -280 vlineto
            -89 49 -66 116 116 49 66 89 vhcurveto
            280 vlineto
            90 -49 66 355 callgsubr
            -49 -66 -90 vhcurveto
            252 -1 rmoveto
            -277 vlineto
            -53 -22 -35 -65 -64 -23 35 53 vhcurveto
            277 vlineto
            52 23 36 64 65 22 -36 -52 vhcurveto
            return
          </CharString>
          <CharString index="27">
            -54 callgsubr
            144 callsubr
            return
          </CharString>
          <CharString index="28">
            43 43 83 vhcurveto
            -82 callgsubr
            return
          </CharString>
          <CharString index="29">
            hhcurveto
            -50 -30 -104 callgsubr
            return
          </CharString>
          <CharString index="30">
            83 -41 46 -95 -96 -42 -46 -83 vhcurveto
            -61 vlineto
            -49 13 -31 29 -16 vhcurveto
            -42 -15 -16 -34 -50 vvcurveto
            -91 vlineto
            -83 45 -47 94 28 25 4 4 17 vhcurveto
            -59 69 234 -69 -110 vlineto
            -4 -12 -26 -4 -26 hhcurveto
            -57 -15 27 38 hvcurveto
            85 vlineto
            41 10 29 59 vhcurveto
            return
          </CharString>
          <CharString index="31">
            -68 callgsubr
            hlineto
            endchar
          </CharString>
          <CharString index="32">
            -83 47 -43 96 30 28 6 3 15 vhcurveto
            -76 71 return
          </CharString>
          <CharString index="33">
            67 vlineto
            -11 -35 -38 callsubr
            29 -6 34 hhcurveto
            100 47 48 83 hvcurveto
            return
          </CharString>
          <CharString index="34">
            -86 55 -49 100 36 23 3 6 25 vhcurveto
            87 callgsubr
            -19 -3 -33 hhcurveto
            -64 -25 27 43 hvcurveto
            163 216 callgsubr
            return
          </CharString>
          <CharString index="35">
            90 hlineto
            144 154 3 1 rlineto
            -109 72 245 callsubr
            18 21 3 24 -79 callgsubr
            vlineto
            endchar
          </CharString>
          <CharString index="36">
            vlineto
            -101 callsubr
            return
          </CharString>
          <CharString index="37">
            rmoveto
            -65 -23 -22 -105 -106 -23 19 64 vhcurveto
            28 vlineto
            43 19 273 callsubr
            -56 132 callgsubr
            133 vlineto
            43 11 -17 callsubr
            return
          </CharString>
          <CharString index="38">
            rmoveto
            -33 vlineto
            -66 30 -36 52 -25 vhcurveto
            85 -41 rlineto
            50 -25 13 -16 -35 vvcurveto
            -19 vlineto
            -46 -25 -27 -88 -46 -40 8 10 -28 vhcurveto
            -73 vlineto
            -9 29 37 -7 54 hhcurveto
            126 60 50 92 hvcurveto
            27 vlineto
            62 -36 34 -53 27 vhcurveto
            -86 43 rlineto
            -43 21 -14 15 42 vvcurveto
            24 vlineto
            48 16 25 84 41 41 -9 -9 26 vhcurveto
            72 vlineto
            9 -28 -43 8 -41 hhcurveto
            -126 -47 -50 -91 hvcurveto
            return
          </CharString>
          <CharString index="39">
            vlineto
            -75 callgsubr
          </CharString>
          <CharString index="40">
            hhcurveto
            -92 -56 callgsubr
            return
          </CharString>
          <CharString index="41">
            rmoveto
            -474 vlineto
            -1 -3 -36 -28 -52 hhcurveto
            -51 -25 27 53 hvcurveto
            423 -80 -432 vlineto
            -91 48 -50 92 62 43 26 3 5 vhcurveto
            -27 76 571 vlineto
            return
          </CharString>
          <CharString index="42">
            vlineto
            -99 50 -57 119 25 19 2 3 16 vhcurveto
            -29 callgsubr
          </CharString>
          <CharString index="43">
            72 -61 callsubr
          </CharString>
          <CharString index="44">
            108 -58 callgsubr
            return
          </CharString>
          <CharString index="45">
            192 callgsubr
            -10 43 42 -5 51 hhcurveto
            117 58 46 88 hvcurveto
            return
          </CharString>
          <CharString index="46">
            -59 callgsubr
            vlineto
            endchar
          </CharString>
          <CharString index="47">
            rmoveto
            -521 vlineto
            -55 -26 -37 -69 -68 -26 37 55 vhcurveto
            521 -79 -524 vlineto
            -91 54 122 callsubr
            524 vlineto
            return
          </CharString>
          <CharString index="48">
            rmoveto
            -90 callgsubr
            return
          </CharString>
          <CharString index="49">
            -62 524 hlineto
            -95 callsubr
            155 -51 callsubr
            28 -2 -2 28 vhcurveto
            -277 vlineto
            -98 66 -52 109 59 44 10 8 26 vhcurveto
            -102 callsubr
            51 37 13 24 23 hvcurveto
            return
          </CharString>
          <CharString index="50">
            313 callgsubr
            -96 -88 callsubr
            return
          </CharString>
          <CharString index="51">
            -99 50 -57 119 0 callgsubr
            vhcurveto
            -77 callgsubr
            return
          </CharString>
          <CharString index="52">
            -376 -87 callgsubr
            139 -590 -88 callsubr
            return
          </CharString>
          <CharString index="53">
            73 callsubr
            vlineto
            endchar
          </CharString>
          <CharString index="54">
            8 -19 -21 5 -31 hhcurveto
            -54 -35 -18 callgsubr
            return
          </CharString>
          <CharString index="55">
            rmoveto
            -39 -108 rlineto
            49 hlineto
            61 108 rlineto
            return
          </CharString>
          <CharString index="56">
            vlineto
            7 -49 -51 6 -49 hhcurveto
            -114 -52 -56 -83 hvcurveto
            -227 -65 callgsubr
            222 273 callgsubr
            21 return
          </CharString>
          <CharString index="57">
            rmoveto
            64 hlineto
            51 108 rlineto
            -47 hlineto
            -36 -62 -37 62 rlineto
            -46 hlineto
            return
          </CharString>
          <CharString index="58">
            -62 272 hlineto
            0 12 -24 callgsubr
            -121 vlineto
            -51 -20 -31 -61 -22 -22 191 callsubr
            117 -70 -265 vlineto
            -121 81 -50 121 -6 vhcurveto
            -139 -91 rlineto
            -4 vlineto
            99 -11 145 109 rlineto
            66 vlineto
            -5 -20 -36 -3 -24 hhcurveto
            -96 -61 33 84 hvcurveto
            return
          </CharString>
          <CharString index="59">
            rmoveto
            -38 -16 -30 -63 -22 -22 4 5 -18 vhcurveto
            51 68 callsubr
            346 236 callgsubr
            return
          </CharString>
          <CharString index="60">
            -126 109 callsubr
            return
          </CharString>
          <CharString index="61">
            -8 callsubr
            556 400 rmoveto
            -1032 -103 callgsubr
            523 -100 hlineto
            143 callsubr
            -51 -37 -13 -23 -25 hvcurveto
            23 -23 -35 12 -53 36 callgsubr
            29 25 3 7 19 vhcurveto
            -8 vlineto
            -79 36 -48 94 vhcurveto
            22 67 hlineto
            -64 -1 -18 209 callgsubr
          </CharString>
          <CharString index="62">
            vlineto
            -46 -25 -29 -63 -36 -96 callgsubr
            return
          </CharString>
          <CharString index="63">
            -62 78 -342 -22 callsubr
            return
          </CharString>
          <CharString index="64">
            -3 10 -27 -41 vvcurveto
            return
          </CharString>
          <CharString index="65">
            rmoveto
            -62 126 236 callgsubr
            -66 vlineto
            -58 -26 -14 -81 vhcurveto
            -21 -127 hlineto
            -37 7 -30 13 -24 vhcurveto
            -9 -41 -46 -7 -44 hhcurveto
            -117 -43 236 callsubr
            119 57 41 107 hvcurveto
            57 vlineto
            86 -31 49 -95 -96 -35 -50 -87 -20 5 -25 0 vhcurveto
            70 hlineto
            0 -5 24 23 13 callgsubr
            return
          </CharString>
          <CharString index="66">
            -52 -51 -15 0 callsubr
            return
          </CharString>
          <CharString index="67">
            36 callsubr
            48 36 82 vvcurveto
            return
          </CharString>
          <CharString index="68">
            rmoveto
            -36 callgsubr
            141 328 callgsubr
            -465 21 callsubr
            endchar
          </CharString>
          <CharString index="69">
            5 callgsubr
            114 vlineto
            -7 20 return
          </CharString>
          <CharString index="70">
            17 26 64 vhcurveto
            37 67 -36 hlineto
            -63 return
          </CharString>
          <CharString index="71">
            -69 callgsubr
            51 37 13 24 24 hvcurveto
            return
          </CharString>
          <CharString index="72">
            35 callgsubr
            -788 -49 callsubr
            82 vlineto
            -3 18 21 -3 26 hhcurveto
            100 55 callsubr
            -30 hhcurveto
            -99 97 callgsubr
            99 327 callgsubr
            19 115 callgsubr
          </CharString>
          <CharString index="73">
            42 215 callgsubr
            return
          </CharString>
          <CharString index="74">
            127 callsubr
            40 43 80 vhcurveto
            return
          </CharString>
          <CharString index="75">
            rmoveto
            -27 308 callsubr
            15 21 33 131 callsubr
            -17 vhcurveto
            return
          </CharString>
          <CharString index="76">
            66 vlineto
            -9 -34 -37 -7 -46 hhcurveto
            -68 -37 26 56 hvcurveto
            return
          </CharString>
          <CharString index="77">
            -6 callgsubr
            -58 -26 -14 -80 vhcurveto
            -22 return
          </CharString>
          <CharString index="78">
            -28 callsubr
            -213 -120 rmoveto
            259 callsubr
            103 38 38 90 vhcurveto
            120 vlineto
            83 -38 46 -103 -102 -38 -46 -83 vhcurveto
            endchar
          </CharString>
          <CharString index="79">
            rmoveto
            -39 -13 -26 -60 -60 -13 26 39 vhcurveto
            346 callsubr
            13 26 60 60 13 -26 -39 vhcurveto
            return
          </CharString>
          <CharString index="80">
            80 callsubr
            -214 -226 rmoveto
            -40 -16 -31 -60 -60 -11 31 40 vhcurveto
            226 vlineto
            39 12 31 60 60 15 -31 -39 vhcurveto
            357 235 rmoveto
            62 -648 -62 398 -107 vlineto
            -36 -6 -24 -16 -13 -25 rrcurveto
            33 -19 -35 19 -56 hhcurveto
            -98 -42 -49 -83 hvcurveto
            -228 vlineto
            -83 41 -50 98 56 36 18 33 19 vhcurveto
            9 -16 13 -13 18 -8 -76 -143 rcurveline
            76 hlineto
            64 129 rlineto
            7 hlineto
            9 hlineto
            65 -129 rlineto
            76 hlineto
            -76 143 rlineto
            44 20 19 41 58 vvcurveto
            227 vlineto
            72 -31 47 -72 11 vhcurveto
            105 vlineto
            endchar
          </CharString>
          <CharString index="81">
            -78 44 -48 90 -6 vhcurveto
            -150 -190 rlineto
            84 hlineto
            154 200 rlineto
            1 -184 71 423 hlineto
            0 30 10 38 59 16 -26 -38 vhcurveto
            -173 vlineto
            -41 -16 -25 -62 2 vhcurveto
            -67 vlineto
            2 9 -1 7 hhcurveto
            91 42 48 80 hvcurveto
            178 vlineto
            79 -46 51 -96 254 callsubr
          </CharString>
          <CharString index="82">
            vhcurveto
            -15 callsubr
            return
          </CharString>
          <CharString index="83">
            4 -14 5 -35 -25 vvcurveto
            -122 vlineto
            -39 -12 -28 -60 -26 -25 3 5 -21 vhcurveto
            118 -71 -283 71 100 vlineto
            -6 25 24 -4 31 hhcurveto
            89 47 46 85 hvcurveto
            124 vlineto
            37 -4 22 -5 16 vhcurveto
            return
          </CharString>
          <CharString index="84">
            249 callgsubr
            vlineto
            endchar
          </CharString>
          <CharString index="85">
            hlineto
            -30 callgsubr
            return
          </CharString>
          <CharString index="86">
            72 3 callsubr
          </CharString>
          <CharString index="87">
            59 44 10 8 26 return
          </CharString>
          <CharString index="88">
            rmoveto
            36 -62 rlineto
            47 hlineto
            -51 108 rlineto
            -64 hlineto
            -51 -108 rlineto
            46 hlineto
            return
          </CharString>
          <CharString index="89">
            -89 callsubr
            823 62 rmoveto
            -1124 111 callsubr
            21 hhcurveto
            61 12 -26 -40 hvcurveto
            -86 72 87 vlineto
            77 -35 52 -106 -23 -36 -3 -5 -19 vhcurveto
            101 587 -108 -286 -65 77 231 callgsubr
            -64 -31 -24 3 6 -25 vhcurveto
            -66 vlineto
            -6 23 23 -3 36 hhcurveto
            104 55 45 callgsubr
          </CharString>
          <CharString index="90">
            23 callsubr
            175 -95 hlineto
            -36 -27 -8 0 hvcurveto
            -63 vlineto
            0 24 8 31 61 13 -26 -45 vhcurveto
            return
          </CharString>
          <CharString index="91">
            vlineto
            -3 callgsubr
            return
          </CharString>
          <CharString index="92">
            22 -14 callgsubr
            return
          </CharString>
          <CharString index="93">
            -191 vlineto
            -99 50 -57 119 return
          </CharString>
          <CharString index="94">
            21 25 2 23 hhcurveto
            61 11 return
          </CharString>
          <CharString index="95">
            182 rmoveto
            -16 -19 -35 -14 -56 hhcurveto
            -92 -35 166 callgsubr
            79 1 48 36 82 vvcurveto
            72 vlineto
            42 -6 23 -2 4 vhcurveto
            118 222 callgsubr
            234 vlineto
            10 6 -27 -42 hvcurveto
            -64 vlineto
            -49 -18 -17 125 callsubr
            return
          </CharString>
          <CharString index="96">
            -63 65 callgsubr
            return
          </CharString>
          <CharString index="97">
            rmoveto
            -62 135 236 callgsubr
            -66 vlineto
            -58 -26 -14 -81 vhcurveto
            -21 -127 hlineto
            -39 8 -31 14 -24 vhcurveto
            -10 -39 -45 -8 -36 hhcurveto
            -73 -44 22 65 hvcurveto
            45 -38 callgsubr
            49 178 callsubr
            return
          </CharString>
          <CharString index="98">
            rmoveto
            -23 -103 rlineto
            -64 -69 62 -377 hlineto
            -83 43 -47 92 34 35 9 2 7 vhcurveto
            71 vlineto
            -2 -8 -29 -9 -30 hhcurveto
            -43 -23 18 45 hvcurveto
            373 124 69 -124 103 vlineto
            return
          </CharString>
          <CharString index="99">
            rmoveto
            39 13 26 60 60 13 -26 -39 vhcurveto
            -120 vlineto
            -39 -13 -26 -60 -60 -13 26 39 vhcurveto
            return
          </CharString>
          <CharString index="100">
            rmoveto
            -123 158 123 hlineto
            -193 return
          </CharString>
          <CharString index="101">
            vlineto
            39 13 29 59 return
          </CharString>
          <CharString index="102">
            190 -89 callsubr
            return
          </CharString>
          <CharString index="103">
            590 rmoveto
            162 -318 hlineto
            -6 -14 -28 -7 -35 hhcurveto
            -64 -21 29 39 hvcurveto
            return
          </CharString>
          <CharString index="104">
            23 0 vhcurveto
            return
          </CharString>
          <CharString index="105">
            rmoveto
            -908 -62 286 -451 hlineto
            -107 callgsubr
            return
          </CharString>
          <CharString index="106">
            -27 callgsubr
            140 vlineto
            37 return
          </CharString>
          <CharString index="107">
            23 38 vhcurveto
            return
          </CharString>
          <CharString index="108">
            vhcurveto
            63 vlineto
            2 return
          </CharString>
          <CharString index="109">
            rmoveto
            -39 -10 -26 -56 -57 -10 27 38 vhcurveto
            66 vlineto
            38 10 27 57 56 10 -26 -39 vhcurveto
            return
          </CharString>
          <CharString index="110">
            590 166 callsubr
          </CharString>
          <CharString index="111">
            rmoveto
            -125 64 callgsubr
            -8 23 0 vhcurveto
            return
          </CharString>
          <CharString index="112">
            53 75 hvcurveto
            177 vlineto
            83 -47 45 return
          </CharString>
          <CharString index="113">
            -244 rmoveto
            -4 -15 4 callgsubr
            -95 103 callsubr
            -183 vlineto
            -83 47 -43 95 306 callsubr
            245 callsubr
            19 114 callsubr
            -16 vhcurveto
            94 282 62 return
          </CharString>
          <CharString index="114">
            -102 callsubr
            51 37 13 24 23 hvcurveto
            156 84 callgsubr
          </CharString>
          <CharString index="115">
            rmoveto
            146 108 62 -506 -62 326 -84 -105 vlineto
            -100 -46 -36 -81 hvcurveto
            -12 vlineto
            -46 17 -30 34 -16 vhcurveto
            -35 -17 -18 -29 -46 vvcurveto
            -55 vlineto
            -95 53 -55 145 55 69 8 9 39 vhcurveto
            63 vlineto
            -9 -48 -56 -7 -56 hhcurveto
            -106 -23 34 55 hvcurveto
            53 vlineto
            39 20 24 63 vhcurveto
            88 hlineto
            -117 -139 70 -3 103 123 rlineto
            7 -10 2 -15 -18 vvcurveto
            -32 67 36 vlineto
            79 -36 38 -91 vhcurveto
            -98 205 callgsubr
          </CharString>
          <CharString index="116">
            15 23 51 vhcurveto
            return
          </CharString>
          <CharString index="117">
            600 846 229 callgsubr
            30 25 -4 -4 17 vhcurveto
            167 223 rmoveto
            -1039 -62 522 hlineto
            0 12 -24 callgsubr
            -121 vlineto
            -51 -19 -31 -61 -21 -23 191 callsubr
            153 -51 callsubr
            30 -2 -2 28 vhcurveto
            -244 vlineto
            return
          </CharString>
          <CharString index="118">
            -33 hlineto
            -131 -79 -48 -114 -1 hvcurveto
            -4 72 vlineto
            71 45 28 97 vhcurveto
            25 hlineto
            116 37 -41 -86 hvcurveto
            -36 118 callsubr
            return
          </CharString>
          <CharString index="119">
            339 callgsubr
            -259 -64 84 189 callgsubr
            return
          </CharString>
          <CharString index="120">
            127 hlineto
            83 -43 47 -96 -97 -42 -47 -83 -24 5 -27 272 callgsubr
            10 27 57 291 callsubr
            -125 -70 vlineto
            -100 -40 -42 -80 hvcurveto
            -94 vlineto
            -80 40 -44 100 99 41 44 80 vhcurveto
            153 return
          </CharString>
          <CharString index="121">
            -5 -32 hhcurveto
            -60 -14 26 39 hvcurveto
            346 callsubr
            14 26 60 return
          </CharString>
          <CharString index="122">
            rmoveto
            26 264 callsubr
            vlineto
            47 callgsubr
            return
          </CharString>
          <CharString index="123">
            -20 rmoveto
            -33 158 callsubr
            33 150 callgsubr
            25 -11 20 -34 hvcurveto
            return
          </CharString>
          <CharString index="124">
            300 callgsubr
            25 214 callsubr
            145 62 -510 237 callsubr
            hlineto
            -101 206 callsubr
            -30 245 callgsubr
            99 vhcurveto
            19 hlineto
            63 16 -25 -38 hvcurveto
            -39 vlineto
            -49 -36 -18 -67 -50 -51 6 9 -37 vhcurveto
            -66 vlineto
            -9 39 44 -7 55 hhcurveto
            117 58 46 88 hvcurveto
            2 224 rmoveto
            132 callsubr
            33 342 callsubr
            352 callsubr
          </CharString>
          <CharString index="125">
            143 rmoveto
            -4 -10 -34 -8 -41 hhcurveto
            -63 196 callsubr
            40 34 -8 -4 11 vhcurveto
            return
          </CharString>
          <CharString index="126">
            69 -219 236 190 70 -190 229 return
          </CharString>
          <CharString index="127">
            vlineto
            -175 79 callgsubr
            return
          </CharString>
          <CharString index="128">
            237 callsubr
            hlineto
            -101 -48 -40 -83 hvcurveto
            -62 callsubr
            return
          </CharString>
          <CharString index="129">
            -36 callsubr
            155 84 callgsubr
          </CharString>
          <CharString index="130">
            24 0 vhcurveto
            return
          </CharString>
          <CharString index="131">
            vlineto
            -83 51 -43 92 -3 vhcurveto
            -143 -170 rlineto
            85 hlineto
            150 178 4 1 rlineto
            -118 70 249 -70 -71 vlineto
            -6 305 callgsubr
            44 hvcurveto
            138 276 callsubr
          </CharString>
          <CharString index="132">
            60 callgsubr
            10 callgsubr
            return
          </CharString>
          <CharString index="133">
            49 44 523 rmoveto
            -132 vlineto
            -94 56 -54 96 42 36 6 14 27 vhcurveto
            -109 vlineto
            -47 -25 -40 -82 -52 -46 11 12 -32 vhcurveto
            -75 vlineto
            -9 25 48 -11 58 hhcurveto
            128 57 65 89 hvcurveto
            374 vlineto
            92 -49 69 -119 -119 -49 -69 -92 vhcurveto
            257 -1 rmoveto
            -188 vlineto
            -13 -21 -35 -9 -37 hhcurveto
            -54 -31 27 57 hvcurveto
            126 vlineto
            55 21 37 68 68 21 -37 -55 vhcurveto
            endchar
          </CharString>
          <CharString index="134">
            -210 rmoveto
            -108 152 rlineto
            -66 hlineto
            96 -152 rlineto
            return
          </CharString>
          <CharString index="135">
            62 313 414 rmoveto
            -5 0 -6 -1 -5 vhcurveto
            -170 192 rlineto
            171 hlineto
            -471 vmoveto
            -43 -17 -32 -72 -72 -17 32 43 vhcurveto
            87 vlineto
            44 17 31 72 72 17 -31 -44 vhcurveto
            -178 318 rmoveto
            151 -172 rlineto
            -8 -14 -20 -5 -28 hhcurveto
            -72 -17 32 43 hvcurveto
            339 238 rmoveto
            -500 -62 90 -176 hlineto
            -47 17 -35 34 -22 vhcurveto
            -34 -22 -17 -35 -45 vvcurveto
            -90 vlineto
            return
          </CharString>
          <CharString index="136">
            7 callgsubr
            219 vlineto
            186 callsubr
            return
          </CharString>
          <CharString index="137">
            -62 751 -96 -302 -66 93 hlineto
            0 9 -23 -44 vvcurveto
            -159 vlineto
            -46 -25 -29 -64 -23 -36 7 6 -30 vhcurveto
            8 18 3 21 23 vvcurveto
            169 vlineto
            87 -47 47 -109 -112 317 callgsubr
            38 30 6 11 24 vhcurveto
            -10 31 65 -14 48 215 callgsubr
            163 -35 callgsubr
            136 -431 72 590 return
          </CharString>
          <CharString index="138">
            48 23 29 82 43 43 -7 -10 31 vhcurveto
            73 vlineto
            8 -29 -42 8 -46 hhcurveto
            -127 -58 -56 -89 hvcurveto
            return
          </CharString>
          <CharString index="139">
            hlineto
            -39 -16 -27 -52 -9 -14 1 1 -6 vhcurveto
            -68 vlineto
            -2 6 21 -1 11 hhcurveto
            88 43 53 78 hvcurveto
            return
          </CharString>
          <CharString index="140">
            39 -37 callsubr
            return
          </CharString>
          <CharString index="141">
            rmoveto
            151 -342 hlineto
            -3 -13 -24 -5 -29 hhcurveto
            -64 -21 29 39 hvcurveto
            446 282 rmoveto
            62 -603 -62 85 -284 vlineto
            -79 44 -47 90 -5 vhcurveto
            -150 -191 rlineto
            84 hlineto
            154 200 rlineto
            1 -184 71 426 hlineto
            7 22 34 2 26 hhcurveto
            60 15 -26 -41 hvcurveto
            -5 67 7 vlineto
            77 -33 52 -106 -28 -36 -3 -6 -21 vhcurveto
            100 vlineto
            endchar
          </CharString>
          <CharString index="142">
            432 -7 callsubr
            return
          </CharString>
          <CharString index="143">
            -40 74 callgsubr
            return
          </CharString>
          <CharString index="144">
            -71 callsubr
            130 return
          </CharString>
          <CharString index="145">
            hvcurveto
            -284 -62 288 -86 -74 hlineto
            -100 206 callsubr
            -7 vlineto
            -83 49 -40 99 vhcurveto
            23 hlineto
            63 16 -26 -37 hvcurveto
            -35 vlineto
            -42 -25 -22 -64 -34 -27 3 4 -22 vhcurveto
            74 -69 -237 69 99 vlineto
            -5 20 32 -4 37 hhcurveto
            111 44 43 85 hvcurveto
            38 vlineto
            83 -48 42 -103 vhcurveto
            -23 hlineto
            -60 -16 24 37 hvcurveto
            5 vlineto
            37 16 23 60 vhcurveto
            return
          </CharString>
          <CharString index="146">
            -29 -39 vhcurveto
            -138 72 138 vlineto
            41 return
          </CharString>
          <CharString index="147">
            rmoveto
            -9 -32 -34 -10 -59 hhcurveto
            -71 -39 25 60 hvcurveto
            123 256 callgsubr
            100 45 49 83 hvcurveto
            135 vlineto
            44 -7 -3 callsubr
            90 62 -469 -62 305 hlineto
            0 9 -24 callgsubr
            -134 vlineto
            -39 -16 -29 -63 -34 -24 6 7 -21 vhcurveto
            116 -72 -305 179 callsubr
            59 47 123 callgsubr
            endchar
          </CharString>
          <CharString index="148">
            54 callsubr
            vlineto
            endchar
          </CharString>
          <CharString index="149">
            148 callgsubr
            -139 -64 callsubr
          </CharString>
          <CharString index="150">
            82 callsubr
            -46 vlineto
            -109 75 -43 115 57 71 17 16 40 vhcurveto
            -21 36 45 -8 48 hhcurveto
            307 callsubr
            hvcurveto
            -96 238 callsubr
            vlineto
            endchar
          </CharString>
          <CharString index="151">
            82 callsubr
            -51 322 callsubr
            48 51 11 10 39 vhcurveto
            -22 25 37 -12 51 hhcurveto
            43 36 175 callsubr
            62 vlineto
            endchar
          </CharString>
          <CharString index="152">
            rmoveto
            61 -108 rlineto
            49 hlineto
            -39 108 rlineto
            endchar
          </CharString>
          <CharString index="153">
            rmoveto
            -64 -176 -23 -70 -19 -56 -18 -56 rlinecurve
            -17 56 -18 56 -25 71 -64 175 rcurveline
            -81 hlineto
            165 -448 rlineto
            -226 79 226 vlineto
            165 448 rlineto
            return
          </CharString>
          <CharString index="154">
            14 callsubr
            29 25 -4 -4 18 vhcurveto
            return
          </CharString>
          <CharString index="155">
            -94 callsubr
            -44 1 return
          </CharString>
          <CharString index="156">
            rmoveto
            239 62 -610 -44 callsubr
            426 vlineto
            7 23 34 2 25 hhcurveto
            61 14 -26 -41 hvcurveto
            -5 67 7 vlineto
            77 -32 52 -106 -28 -36 -3 -6 -22 vhcurveto
            -70 -300 -89 callsubr
            endchar
          </CharString>
          <CharString index="157">
            hlineto
            50 -14 -40 22 -66 hhcurveto
            -184 hlineto
            -39 callgsubr
            -142 147 callsubr
            133 vlineto
            41 -10 27 -1 2 vhcurveto
            57 hlineto
            return
          </CharString>
          <CharString index="158">
            -225 -126 100 101 callsubr
            -26 4 -21 188 callgsubr
            17 28 220 callgsubr
            return
          </CharString>
          <CharString index="159">
            -34 -11 -20 -25 -54 callgsubr
            25 -11 20 -34 hvcurveto
            return
          </CharString>
          <CharString index="160">
            -97 hlineto
            87 callsubr
            return
          </CharString>
          <CharString index="161">
            -79 44 -48 93 -5 vhcurveto
            -169 -196 rlineto
            139 callgsubr
            return
          </CharString>
          <CharString index="162">
            47 49 97 hvcurveto
            122 vlineto
            44 -11 -3 callsubr
            280 -97 hlineto
            4 -20 -28 5 return
          </CharString>
          <CharString index="163">
            hhcurveto
            -50 -30 72 callsubr
            vhcurveto
            8 49 1 4 hhcurveto
            65 vlineto
            -59 -1 rlineto
            141 callsubr
            60 12 -29 -39 vhcurveto
            -138 72 138 39 callgsubr
            return
          </CharString>
          <CharString index="164">
            rmoveto
            -62 183 236 callgsubr
            -66 vlineto
            -52 -21 -16 -62 -3 vhcurveto
            16 -14 -26 8 -40 hhcurveto
            -86 117 hlineto
            54 callgsubr
            return
          </CharString>
          <CharString index="165">
            -98 callsubr
            269 return
          </CharString>
          <CharString index="166">
            vhcurveto
            68 -70 -220 70 87 vlineto
            -5 22 26 -4 35 hhcurveto
            return
          </CharString>
          <CharString index="167">
            99 callsubr
            255 callgsubr
          </CharString>
          <CharString index="168">
            vlineto
            39 11 80 callgsubr
            return
          </CharString>
          <CharString index="169">
            69 callgsubr
            90 61 callsubr
            return
          </CharString>
          <CharString index="170">
            -43 callgsubr
            -97 -46 -51 -83 hvcurveto
            -14 callsubr
            return
          </CharString>
          <CharString index="171">
            0 1 -5 vhcurveto
            -68 vlineto
            -1 return
          </CharString>
          <CharString index="172">
            rmoveto
            -53 vlineto
            4 17 35 7 48 hhcurveto
            53 14 -18 -35 hvcurveto
            -21 vlineto
            -32 -3 -22 -33 -21 vhcurveto
            -67 -45 rlineto
            -56 -37 -21 -25 -62 vvcurveto
            -86 237 52 -181 33 vlineto
            42 4 8 54 36 vhcurveto
            64 45 rlineto
            43 30 15 29 51 vvcurveto
            25 vlineto
            67 -39 38 -83 -48 -42 -7 -3 -11 vhcurveto
            return
          </CharString>
          <CharString index="173">
            rmoveto
            -55 -20 -19 -27 -40 hvcurveto
            43 -76 -571 79 456 vlineto
            29 42 20 14 42 hhcurveto
            32 75 hlineto
            return
          </CharString>
          <CharString index="174">
            vlineto
            12 callgsubr
            return
          </CharString>
          <CharString index="175">
            vlineto
            77 -35 285 callsubr
            return
          </CharString>
          <CharString index="176">
            195 callgsubr
            807 hmoveto
            62 -1108 -62 78 -342 vlineto
            195 callsubr
            return
          </CharString>
          <CharString index="177">
            hhcurveto
            -97 -60 33 84 hvcurveto
            82 vlineto
            -3 18 22 -3 25 hhcurveto
            99 55 callsubr
            -29 hhcurveto
            -100 -36 -47 -83 hvcurveto
            -120 vlineto
            -83 38 301 callgsubr
            96 vlineto
            endchar
          </CharString>
          <CharString index="178">
            61 56 523 rmoveto
            -373 vlineto
            -91 49 -69 119 119 49 69 91 vhcurveto
            373 vlineto
            92 -49 69 -119 -119 -49 -69 -92 vhcurveto
            257 -1 rmoveto
            -370 vlineto
            -54 -21 -37 -68 -68 -21 37 54 vhcurveto
            370 vlineto
            54 21 37 68 68 21 -37 -54 vhcurveto
            endchar
          </CharString>
          <CharString index="179">
            -18 -28 -21 hvcurveto
            63 callsubr
            return
          </CharString>
          <CharString index="180">
            252 callsubr
            159 callgsubr
            return
          </CharString>
          <CharString index="181">
            -120 348 304 rmoveto
            -276 -304 rlineto
            90 hlineto
            91 98 63 67 25 36 7 15 rlinecurve
            -152 374 rmoveto
            137 62 -359 -62 150 -224 32 callsubr
            return
          </CharString>
          <CharString index="182">
            171 -70 callsubr
            151 229 rmoveto
            62 return
          </CharString>
          <CharString index="183">
            -131 78 -61 152 73 71 17 12 41 vhcurveto
            -21 35 46 -8 48 hhcurveto
            307 callsubr
            hvcurveto
            -96 -21 callsubr
          </CharString>
          <CharString index="184">
            73 56 523 -81 callgsubr
            return
          </CharString>
          <CharString index="185">
            50 45 32 32 75 vvcurveto
            35 119 callgsubr
            -35 vlineto
            -76 29 -34 57 -45 vhcurveto
            -119 -107 91 -12 83 76 return
          </CharString>
          <CharString index="186">
            173 callgsubr
            48 36 82 vvcurveto
            74 vlineto
            43 -8 23 callsubr
            117 hlineto
            return
          </CharString>
          <CharString index="187">
            rmoveto
            -40 -11 -31 -60 -60 -15 31 40 vhcurveto
            226 vlineto
            39 15 31 60 60 11 -31 -39 vhcurveto
            return
          </CharString>
          <CharString index="188">
            48 callgsubr
            vlineto
            endchar
          </CharString>
          <CharString index="189">
            -42 -13 -16 -37 -47 vvcurveto
            return
          </CharString>
          <CharString index="190">
            -8 -4 18 vhcurveto
            -424 -88 callsubr
            return
          </CharString>
          <CharString index="191">
            27 callgsubr
            -54 vlineto
            -85 53 -53 120 49 50 5 8 42 vhcurveto
            63 vlineto
            -8 -48 -39 -3 -51 hhcurveto
            315 callsubr
            return
          </CharString>
          <CharString index="192">
            -265 -288 rlineto
            91 hlineto
            94 101 69 74 15 25 3 10 rlinecurve
            1 hlineto
            -2 -16 -3 -55 -66 vvcurveto
            -27 69 592 95 62 return
          </CharString>
          <CharString index="193">
            96 callsubr
            124 callsubr
            return
          </CharString>
          <CharString index="194">
            4 -10 -36 8 -43 hhcurveto
            return
          </CharString>
          <CharString index="195">
            1 8 9 1 9 hhcurveto
            30 345 callsubr
            85 -127 rlineto
            return
          </CharString>
          <CharString index="196">
            -62 77 -339 hlineto
            126 callgsubr
            return
          </CharString>
          <CharString index="197">
            -88 callsubr
            hlineto
            endchar
          </CharString>
          <CharString index="198">
            65 vlineto
            -2 -15 -21 -3 -22 302 callsubr
            return
          </CharString>
          <CharString index="199">
            -149 98 callsubr
          </CharString>
          <CharString index="200">
            130 527 118 callgsubr
            -41 vlineto
            -48 -33 -24 -34 -28 vhcurveto
            -34 28 -32 24 48 vvcurveto
            return
          </CharString>
          <CharString index="201">
            rmoveto
            328 callgsubr
            -465 237 callsubr
            vlineto
            171 callgsubr
            25 -6 25 -4 26 -2 return
          </CharString>
          <CharString index="202">
            -116 vlineto
            -46 16 -32 30 -20 vhcurveto
            -27 -19 -16 -30 -43 vvcurveto
            -43 vlineto
            -86 48 -46 105 105 47 48 85 vhcurveto
            267 -70 -88 vlineto
            -3 -14 -32 -7 -35 hhcurveto
            -64 -21 26 39 hvcurveto
            113 276 callsubr
          </CharString>
          <CharString index="203">
            vlineto
            -80 41 -44 99 100 40 44 80 vhcurveto
            return
          </CharString>
          <CharString index="204">
            185 123 102 callgsubr
            return
          </CharString>
          <CharString index="205">
            -51 callgsubr
            endchar
          </CharString>
          <CharString index="206">
            58 callsubr
            144 return
          </CharString>
          <CharString index="207">
            -59 -11 0 callsubr
            122 61 callsubr
            return
          </CharString>
          <CharString index="208">
            vlineto
            54 callgsubr
            return
          </CharString>
          <CharString index="209">
            119 hlineto
            -24 callsubr
            return
          </CharString>
          <CharString index="210">
            -47 -45 -83 hvcurveto
            return
          </CharString>
          <CharString index="211">
            rmoveto
            -39 -15 -22 -51 -52 -14 335 callgsubr
            14 23 52 vhcurveto
            54 hlineto
            2 -43 callsubr
            return
          </CharString>
          <CharString index="212">
            vlineto
            81 callsubr
          </CharString>
          <CharString index="213">
            53 123 440 rmoveto
            177 -164 rlineto
            -81 vlineto
            -8 -24 -24 -7 -40 hhcurveto
            -64 -25 29 39 hvcurveto
            177 342 rmoveto
            -248 vlineto
            -177 165 rlineto
            83 vlineto
            -149 62 rmoveto
            -62 77 -344 vlineto
            return
          </CharString>
          <CharString index="214">
            rmoveto
            -26 -125 rlineto
            35 hlineto
            15 21 33 131 callsubr
            -16 vhcurveto
            return
          </CharString>
          <CharString index="215">
            186 vlineto
            111 49 63 91 hvcurveto
            369 vlineto
            90 -54 61 -109 vhcurveto
            return
          </CharString>
          <CharString index="216">
            vlineto
            21 callgsubr
            return
          </CharString>
          <CharString index="217">
            -175 66 566 rmoveto
            -566 79 566 vlineto
            return
          </CharString>
          <CharString index="218">
            -44 callsubr
            425 309 callsubr
            return
          </CharString>
          <CharString index="219">
            15 30 32 10 149 callgsubr
            return
          </CharString>
          <CharString index="220">
            -34 -11 -19 -26 return
          </CharString>
          <CharString index="221">
            21 3 24 hhcurveto
            60 18 -27 -39 258 callsubr
            -38 -11 -26 -51 -6 -7 64 callsubr
            6 9 0 9 hhcurveto
            90 36 5 callsubr
            -96 -29 -24 -4 -5 return
          </CharString>
          <CharString index="222">
            115 261 rmoveto
            -86 callgsubr
            return
          </CharString>
          <CharString index="223">
            -23 -44 vvcurveto
            -64 vlineto
            -46 125 callgsubr
            return
          </CharString>
          <CharString index="224">
            -200 -445 rlineto
            -58 284 68 -203 vlineto
            203 445 rlineto
            return
          </CharString>
          <CharString index="225">
            -95 -92 callgsubr
            return
          </CharString>
          <CharString index="226">
            199 vlineto
            62 -20 41 -51 14 vhcurveto
            105 return
          </CharString>
          <CharString index="227">
            -83 126 callsubr
            return
          </CharString>
          <CharString index="228">
            -62 77 -332 hlineto
            -83 49 -49 104 return
          </CharString>
          <CharString index="229">
            -69 119 119 54 69 91 vhcurveto
            return
          </CharString>
          <CharString index="230">
            -53 callgsubr
            endchar
          </CharString>
          <CharString index="231">
            153 126 -337 -88 callsubr
            62 return
          </CharString>
          <CharString index="232">
            -53 -5 vhcurveto
            28 -14 -31 18 -58 hhcurveto
            -146 return
          </CharString>
          <CharString index="233">
            44 -51 103 311 callsubr
            vhcurveto
            return
          </CharString>
          <CharString index="234">
            170 callgsubr
            100 return
          </CharString>
          <CharString index="235">
            333 rmoveto
            174 -141 rlineto
            -29 vlineto
            -4 -12 -27 -7 -43 hhcurveto
            -68 -24 31 42 hvcurveto
            174 26 rmoveto
            -172 140 rlineto
            31 8 26 20 56 hhcurveto
            42 28 -8 -5 12 hvcurveto
            return
          </CharString>
          <CharString index="236">
            -169 -196 rcurveline
            182 callgsubr
          </CharString>
          <CharString index="237">
            162 callgsubr
            166 callgsubr
            return
          </CharString>
          <CharString index="238">
            54 24 vvcurveto
            18 -11 8 return
          </CharString>
          <CharString index="239">
            -26 11 -19 34 return
          </CharString>
          <CharString index="240">
            0 -10 -23 -44 vvcurveto
            -134 vlineto
            112 callgsubr
            return
          </CharString>
          <CharString index="241">
            43 -7 23 callsubr
            return
          </CharString>
          <CharString index="242">
            -52 callsubr
            endchar
          </CharString>
          <CharString index="243">
            -62 117 hlineto
            -17 -12 -10 -20 -38 vvcurveto
            -131 vlineto
            -46 10 -34 42 224 callsubr
            return
          </CharString>
          <CharString index="244">
            34 hhcurveto
            100 46 251 callsubr
            -48 -51 -83 vhcurveto
            -14 2 -17 -2 vvcurveto
            398 162 rmoveto
            -652 72 590 94 62 vlineto
            endchar
          </CharString>
          <CharString index="245">
            39 17 26 64 vhcurveto
            38 67 -37 132 callgsubr
            64 92 callgsubr
            return
          </CharString>
          <CharString index="246">
            -22 -59 -60 -10 0 callsubr
            122 vlineto
            39 10 22 60 vhcurveto
            return
          </CharString>
          <CharString index="247">
            -403 rmoveto
            -73 callgsubr
            return
          </CharString>
          <CharString index="248">
            -13 callgsubr
            188 -6 callsubr
            return
          </CharString>
          <CharString index="249">
            vhcurveto
            55 hlineto
            -57 callgsubr
            return
          </CharString>
          <CharString index="250">
            6 -19 -30 6 -43 hhcurveto
            return
          </CharString>
          <CharString index="251">
            26 -11 19 -34 return
          </CharString>
          <CharString index="252">
            rmoveto
            30 10 16 23 23 -10 16 -30 -30 -10 -16 -23 -23 10 -16 30 hvcurveto
            -138 hmoveto
            29 11 16 23 23 -11 16 -29 -30 -10 -16 -23 -23 10 -16 30 hvcurveto
            return
          </CharString>
          <CharString index="253">
            82 callsubr
            -26 vlineto
            -102 72 -46 111 vhcurveto
            1 hlineto
            -144 -139 rlineto
            97 hlineto
            153 152 rlineto
            2 -103 277 callgsubr
          </CharString>
          <CharString index="254">
            vlineto
            17 callgsubr
            93 43 43 83 vhcurveto
            return
          </CharString>
          <CharString index="255">
            51 142 callsubr
            return
          </CharString>
          <CharString index="256">
            vlineto
            39 10 80 callgsubr
            return
          </CharString>
          <CharString index="257">
            18 297 571 rmoveto
            -121 -273 128 -298 rlineto
            86 hlineto
            -132 297 122 274 rlineto
            -314 152 rmoveto
            -723 78 723 vlineto
            return
          </CharString>
          <CharString index="258">
            vlineto
            -174 168 callsubr
            return
          </CharString>
          <CharString index="259">
            352 callgsubr
            57 hhcurveto
            23 18 -4 0 hvcurveto
            63 vlineto
            0 -20 275 callgsubr
            return
          </CharString>
          <CharString index="260">
            vlineto
            -80 41 -51 91 284 callgsubr
            -64 -1 -18 24 41 vvcurveto
            return
          </CharString>
          <CharString index="261">
            -20 -25 -26 11 -19 return
          </CharString>
          <CharString index="262">
            112 callgsubr
            -105 57 -42 145 146 53 43 108 vhcurveto
            119 callsubr
            return
          </CharString>
          <CharString index="263">
            vlineto
            -39 -13 -26 -60 -60 -13 26 39 vhcurveto
            218 238 rmoveto
            0 -2 17 14 vvcurveto
            38 16 31 63 63 16 -30 -38 vhcurveto
            -137 vlineto
            -39 -16 -29 -63 return
          </CharString>
          <CharString index="264">
            vlineto
            252 callsubr
            -21 callsubr
          </CharString>
          <CharString index="265">
            -11 154 callsubr
            return
          </CharString>
          <CharString index="266">
            51 329 674 rmoveto
            -139 -337 145 -337 rlineto
            87 hlineto
            -148 339 140 335 rlineto
            -348 hmoveto
            -674 79 674 vlineto
            return
          </CharString>
          <CharString index="267">
            -43 -83 hvcurveto
            -40 71 38 vlineto
            38 13 24 51 vhcurveto
            3 hlineto
            53 12 -24 -38 hvcurveto
            return
          </CharString>
          <CharString index="268">
            rmoveto
            -4 -11 -29 14 callsubr
            return
          </CharString>
          <CharString index="269">
            5 -12 -29 8 -45 hhcurveto
            -103 -55 -44 -89 hvcurveto
            return
          </CharString>
          <CharString index="270">
            hlineto
            120 callgsubr
            return
          </CharString>
          <CharString index="271">
            134 callsubr
            117 return
          </CharString>
          <CharString index="272">
            0 vhcurveto
            72 hlineto
            0 return
          </CharString>
          <CharString index="273">
            95 62 vlineto
            endchar
          </CharString>
          <CharString index="274">
            -111 68 -46 114 58 41 8 6 30 vhcurveto
            66 vlineto
            -7 -36 -33 -7 -60 hhcurveto
            -71 -40 26 65 hvcurveto
            126 vlineto
            -6 21 27 -3 25 hhcurveto
            return
          </CharString>
          <CharString index="275">
            137 -34 callgsubr
            return
          </CharString>
          <CharString index="276">
            71 -61 callsubr
          </CharString>
          <CharString index="277">
            302 callsubr
            60 12 -29 -39 vhcurveto
            -138 72 138 39 callgsubr
            return
          </CharString>
          <CharString index="278">
            -131 78 -61 152 59 51 12 11 40 vhcurveto
            -26 24 40 -14 55 hhcurveto
            44 35 175 callsubr
            62 vlineto
            endchar
          </CharString>
          <CharString index="279">
            vlineto
            183 callgsubr
            return
          </CharString>
          <CharString index="280">
            284 callsubr
            25 -11 20 -34 311 callgsubr
            return
          </CharString>
          <CharString index="281">
            -207 rmoveto
            -38 -16 -30 -63 -22 -22 4 5 -18 vhcurveto
            return
          </CharString>
          <CharString index="282">
            290 callgsubr
            -88 callsubr
            return
          </CharString>
          <CharString index="283">
            309 callgsubr
            -131 87 -42 return
          </CharString>
          <CharString index="284">
            -89 -70 vlineto
            -103 -49 -41 -88 hvcurveto
            return
          </CharString>
          <CharString index="285">
            92 callgsubr
            68 62 return
          </CharString>
          <CharString index="286">
            298 callgsubr
            108 return
          </CharString>
          <CharString index="287">
            hhcurveto
            -205 hlineto
            -39 callgsubr
            -137 147 callsubr
            142 vlineto
            42 -10 12 -1 2 vhcurveto
            78 hlineto
            return
          </CharString>
          <CharString index="288">
            161 -190 vlineto
            -38 -12 -26 -50 -5 -7 0 1 -5 vhcurveto
            -67 vlineto
            -1 7 8 0 8 hhcurveto
            93 35 53 76 hvcurveto
            192 84 62 return
          </CharString>
          <CharString index="289">
            -98 vlineto
            162 callsubr
            -170 vlineto
            48 callgsubr
            return
          </CharString>
          <CharString index="290">
            -6 callgsubr
            -44 -15 -19 -43 -6 vhcurveto
            49 -12 -44 30 return
          </CharString>
          <CharString index="291">
            248 vlineto
            72 -37 47 -78 10 vhcurveto
            84 vlineto
            endchar
          </CharString>
          <CharString index="292">
            -62 77 -336 hlineto
            -83 46 -56 114 return
          </CharString>
          <CharString index="293">
            43 21 28 65 vhcurveto
            return
          </CharString>
          <CharString index="294">
            rmoveto
            186 callsubr
            119 156 90 62 return
          </CharString>
          <CharString index="295">
            rmoveto
            -50 226 50 vlineto
            return
          </CharString>
          <CharString index="296">
            313 callsubr
            -674 return
          </CharString>
          <CharString index="297">
            rmoveto
            155 96 62 return
          </CharString>
          <CharString index="298">
            3 3 -18 vhcurveto
            return
          </CharString>
          <CharString index="299">
            -1 33 674 rmoveto
            -69 241 vlineto
            116 callgsubr
            67 vlineto
            return
          </CharString>
          <CharString index="300">
            -339 vlineto
            -83 44 -51 103 103 return
          </CharString>
          <CharString index="301">
            vlineto
            -84 50 -38 91 -5 vhcurveto
            -148 -147 rlineto
            90 hlineto
            156 157 5 2 rlineto
            -108 68 -59 callgsubr
            return
          </CharString>
          <CharString index="302">
            -30 callgsubr
            404 vlineto
            7 24 34 2 25 hhcurveto
            60 14 -26 -40 hvcurveto
            return
          </CharString>
          <CharString index="303">
            185 callgsubr
            63 return
          </CharString>
          <CharString index="304">
            rmoveto
            221 callgsubr
            return
          </CharString>
          <CharString index="305">
            189 callsubr
            80 return
          </CharString>
          <CharString index="306">
            hhcurveto
            -64 -23 28 39 hvcurveto
            return
          </CharString>
          <CharString index="307">
            -4 -5 -15 vhcurveto
            94 return
          </CharString>
          <CharString index="308">
            vlineto
            -39 -21 -26 -63 -25 -24 2 7 -23 vhcurveto
            68 -69 -221 69 88 vlineto
            -6 22 25 -3 32 hhcurveto
            103 47 return
          </CharString>
          <CharString index="309">
            -62 268 217 callgsubr
            return
          </CharString>
          <CharString index="310">
            vlineto
            -26 callgsubr
            return
          </CharString>
          <CharString index="311">
            1 -3 10 -23 -41 vvcurveto
            -84 vlineto
            -38 -14 -23 -41 callsubr
            90 vlineto
            38 9 callsubr
            endchar
          </CharString>
          <CharString index="312">
            431 vlineto
            7 return
          </CharString>
          <CharString index="313">
            -48 -40 -83 hvcurveto
            return
          </CharString>
          <CharString index="314">
            82 callsubr
            -56 vlineto
            -100 73 -47 109 49 33 6 8 28 vhcurveto
            -76 -88 callsubr
            62 return
          </CharString>
          <CharString index="315">
            5 rlinecurve
            218 callgsubr
          </CharString>
          <CharString index="316">
            -223 69 715 rmoveto
            -40 -205 rlineto
            41 hlineto
            19 35 46 94 41 vvcurveto
            23 -13 12 -24 vhcurveto
            endchar
          </CharString>
          <CharString index="317">
            163 callsubr
            -48 -5 vhcurveto
            return
          </CharString>
          <CharString index="318">
            0 -8 -23 -44 vvcurveto
            return
          </CharString>
          <CharString index="319">
            -105 130 674 rmoveto
            -119 -86 rlineto
            -88 vlineto
            125 90 rlineto
            -590 79 674 vlineto
            endchar
          </CharString>
          <CharString index="320">
            -40 -205 rlineto
            38 hlineto
            19 35 46 94 return
          </CharString>
          <CharString index="321">
            vlineto
            38 17 23 60 vhcurveto
            141 150 return
          </CharString>
          <CharString index="322">
            96 -152 rlineto
            78 hlineto
            return
          </CharString>
          <CharString index="323">
            27 -80 -46 7 -43 hhcurveto
            -115 -55 -53 -93 hvcurveto
            -62 71 59 vlineto
            51 27 31 79 38 33 -6 return
          </CharString>
          <CharString index="324">
            vlineto
            126 callgsubr
            129 -590 169 callsubr
          </CharString>
          <CharString index="325">
            rmoveto
            -674 298 19 callsubr
            219 70 vlineto
            endchar
          </CharString>
          <CharString index="326">
            -38 -5 -43 hhcurveto
            -93 -31 34 71 hvcurveto
            1 vlineto
            79 49 return
          </CharString>
          <CharString index="327">
            142 callgsubr
            155 callgsubr
            return
          </CharString>
          <CharString index="328">
            199 callsubr
            331 return
          </CharString>
          <CharString index="329">
            vlineto
            6 21 31 2 22 hhcurveto
            return
          </CharString>
          <CharString index="330">
            -30 -10 -16 -23 vhcurveto
            return
          </CharString>
          <CharString index="331">
            -16 vhcurveto
            -42 255 callsubr
            -105 57 -42 144 146 54 43 108 vhcurveto
            return
          </CharString>
          <CharString index="332">
            -23 vhcurveto
            -30 -19 -18 -31 -44 vvcurveto
            -53 vlineto
            -80 50 -38 91 34 32 6 4 16 vhcurveto
            -63 69 return
          </CharString>
          <CharString index="333">
            -451 hlineto
            -9 -27 -22 -4 -31 hhcurveto
            -61 -23 24 48 hvcurveto
            138 vlineto
            257 callsubr
            return
          </CharString>
          <CharString index="334">
            -49 -52 -82 hvcurveto
            return
          </CharString>
          <CharString index="335">
            33 13 23 55 vhcurveto
            20 56 -18 hlineto
            -54 -11 22 33 hvcurveto
            10 vlineto
            40 18 15 38 vhcurveto
            return
          </CharString>
          <CharString index="336">
            -122 hlineto
            -53 callsubr
            return
          </CharString>
          <CharString index="337">
            -404 69 callgsubr
            return
          </CharString>
          <CharString index="338">
            -175 66 723 rmoveto
            -723 79 723 vlineto
            return
          </CharString>
          <CharString index="339">
            29 -33 57 -46 vhcurveto
            -119 -107 91 -12 83 77 return
          </CharString>
          <CharString index="340">
            -2 -11 -3 -41 -70 vvcurveto
            -128 70 -59 callgsubr
            return
          </CharString>
          <CharString index="341">
            -25 11 -20 34 33 12 20 25 26 return
          </CharString>
          <CharString index="342">
            326 callsubr
            -18 26 return
          </CharString>
          <CharString index="343">
            35 92 hvcurveto
            39 26 vlineto
            return
          </CharString>
          <CharString index="344">
            -62 293 -85 -69 return
          </CharString>
          <CharString index="345">
            159 callgsubr
            62 return
          </CharString>
          <CharString index="346">
            130 callgsubr
            -10 -22 -60 -59 return
          </CharString>
          <CharString index="347">
            49 91 rmoveto
            -42 -218 rlineto
            46 hlineto
            22 42 51 100 41 vvcurveto
            23 -15 12 -23 vhcurveto
            return
          </CharString>
          <CharString index="348">
            122 -183 -122 -183 rlineto
            80 hlineto
            121 183 -121 183 rlineto
            return
          </CharString>
          <CharString index="349">
            -40 -18 341 callgsubr
            92 vlineto
            40 18 29 65 65 18 -29 -40 vhcurveto
            return
          </CharString>
          <CharString index="350">
            vlineto
            -42 -17 -32 -72 -72 -17 33 42 vhcurveto
            161 vlineto
            40 17 24 62 vhcurveto
            endchar
          </CharString>
          <CharString index="351">
            -80 257 callgsubr
          </CharString>
          <CharString index="352">
            432 vlineto
            6 return
          </CharString>
          <CharString index="353">
            rmoveto
            -39 -8 -28 -59 -60 -8 28 38 vhcurveto
            69 vlineto
            38 10 24 59 vhcurveto
            66 hlineto
            return
          </CharString>
          <CharString index="354">
            rmoveto
            179 -140 rlineto
            -4 vlineto
            -37 -5 -25 -20 -59 hhcurveto
            -70 259 callgsubr
            return
          </CharString>
          <CharString index="355">
            13 271 callsubr
            12 19 26 25 -12 20 -33 hvcurveto
            return
          </CharString>
          <CharString index="356">
            hlineto
            -132 93 -66 callgsubr
            62 return
          </CharString>
          <CharString index="357">
            143 callsubr
            -103 -50 -53 -83 hvcurveto
            return
          </CharString>
          <CharString index="358">
            48 83 hvcurveto
            140 vlineto
            83 -48 51 -103 -103 return
          </CharString>
          <CharString index="359">
            263 callsubr
            10 vhcurveto
            -80 return
          </CharString>
          <CharString index="360">
            -52 24 -93 39 rcurveline
            -75 32 -80 -24 -89 vvcurveto
            return
          </CharString>
          <CharString index="361">
            -40 -34 -11 0 vhcurveto
            101 vlineto
            endchar
          </CharString>
          <CharString index="362">
            -14 -16 291 callgsubr
            return
          </CharString>
          <CharString index="363">
            rlineto
            76 hlineto
            -78 146 rlineto
            return
          </CharString>
          <CharString index="364">
            56 10 28 0 vhcurveto
            return
          </CharString>
          <CharString index="365">
            hvcurveto
            -171 vlineto
            return
          </CharString>
          <CharString index="366">
            -90 38 -38 102 return
          </CharString>
          <CharString index="367">
            8 7 -25 -40 hvcurveto
            -123 vlineto
            -39 -15 -29 -63 -22 -23 3 5 -19 vhcurveto
            return
          </CharString>
          <CharString index="368">
            38 callgsubr
            75 hlineto
            return
          </CharString>
          <CharString index="369">
            -103 -47 -44 -85 hvcurveto
            -239 vlineto
            return
          </CharString>
          <CharString index="370">
            327 callsubr
            201 callgsubr
            return
          </CharString>
          <CharString index="371">
            -76 -571 79 475 return
          </CharString>
          <CharString index="372">
            -26 -18 -3 -34 hhcurveto
            -63 return
          </CharString>
          <CharString index="373">
            -36 74 callgsubr
            48 36 82 vvcurveto
            72 vlineto
            42 -6 23 return
          </CharString>
          <CharString index="374">
            -42 -23 -27 -69 -69 -19 27 42 vhcurveto
            161 vlineto
            40 20 26 64 vhcurveto
            return
          </CharString>
          <CharString index="375">
            -65 31 -44 58 -17 vhcurveto
            -77 -1 -27 -23 -79 hhcurveto
            -75 -31 17 55 hvcurveto
            return
          </CharString>
          <CharString index="376">
            69 -5 callgsubr
            329 callsubr
            104 hlineto
            return
          </CharString>
          <CharString index="377">
            vlineto
            7 -13 callsubr
            -26 return
          </CharString>
          <CharString index="378">
            197 callsubr
            33 return
          </CharString>
          <CharString index="379">
            342 callgsubr
            60 12 -26 return
          </CharString>
          <CharString index="380">
            23 64 vhcurveto
            54 65 return
          </CharString>
          <CharString index="381">
            192 130 527 118 callgsubr
            return
          </CharString>
          <CharString index="382">
            15 vlineto
            83 -50 38 -71 -29 -22 -8 0 vhcurveto
            -59 vlineto
            0 15 8 return
          </CharString>
          <CharString index="383">
            237 callgsubr
            endchar
          </CharString>
          <CharString index="384">
            vvcurveto
            -43 vlineto
            -80 50 -39 91 35 30 6 5 17 vhcurveto
            -61 68 return
          </CharString>
          <CharString index="385">
            vvcurveto
            -126 vlineto
            -80 40 -43 100 99 41 43 80 vhcurveto
            185 return
          </CharString>
          <CharString index="386">
            rmoveto
            -87 -66 rlineto
            -65 vlineto
            94 74 rlineto
            -394 56 451 vlineto
            return
          </CharString>
          <CharString index="387">
            71 60 vlineto
            51 28 31 78 38 33 -7 -7 23 vhcurveto
            -86 vlineto
            return
          </CharString>
          <CharString index="388">
            99 vlineto
            88 60 53 96 hvcurveto
            293 vlineto
            86 -53 45 -80 -46 return
          </CharString>
          <CharString index="389">
            -9 -27 -22 -4 -30 hhcurveto
            -62 -23 24 return
          </CharString>
          <CharString index="390">
            vlineto
            259 callsubr
            30 24 3 7 return
          </CharString>
          <CharString index="391">
            rmoveto
            -54 callgsubr
            return
          </CharString>
          <CharString index="392">
            52 -106 94 callgsubr
            vhcurveto
            95 return
          </CharString>
          <CharString index="393">
            hhcurveto
            -25 -30 -3 -6 -17 hvcurveto
            return
          </CharString>
          <CharString index="394">
            -70 hlineto
            70 callgsubr
            return
          </CharString>
          <CharString index="395">
            hlineto
            211 callsubr
            return
          </CharString>
          <CharString index="396">
            58 33 93 vhcurveto
            2 vlineto
            return
          </CharString>
          <CharString index="397">
            8 4 11 vhcurveto
            -80 return
          </CharString>
          <CharString index="398">
            56 11 -26 -39 vhcurveto
            return
          </CharString>
          <CharString index="399">
            246 319 callgsubr
            return
          </CharString>
          <CharString index="400">
            hlineto
            0 9 -24 callgsubr
            -166 vlineto
            -46 -26 -29 -63 -35 return
          </CharString>
          <CharString index="401">
            -62 291 -87 -60 vlineto
            -103 -47 -43 -84 hvcurveto
            -163 vlineto
            return
          </CharString>
          <CharString index="402">
            hlineto
            -6 callgsubr
            -46 -16 -18 -46 -6 vhcurveto
            return
          </CharString>
          <CharString index="403">
            -68 -27 15 50 vhcurveto
            -70 -2 hlineto
            -93 58 -33 107 107 58 return
          </CharString>
          <CharString index="404">
            -340 -674 rlineto
            57 hlineto
            340 674 rlineto
            endchar
          </CharString>
          <CharString index="405">
            0 7 hhcurveto
            27 9 -16 -30 10 hvcurveto
            37 -120 rlineto
            return
          </CharString>
          <CharString index="406">
            vlineto
            90 callgsubr
            -61 -16 24 37 hvcurveto
            return
          </CharString>
          <CharString index="407">
            123 345 rmoveto
            80 1 47 35 82 vvcurveto
            60 vlineto
            return
          </CharString>
          <CharString index="408">
            vlineto
            -45 11 -35 121 callgsubr
            return
          </CharString>
          <CharString index="409">
            hhcurveto
            141 callsubr
            return
          </CharString>
          <CharString index="410">
            -151 40 358 rmoveto
            -65 161 65 vlineto
            endchar
          </CharString>
          <CharString index="411">
            -89 -70 vlineto
            -103 -48 -41 -88 hvcurveto
            return
          </CharString>
          <CharString index="412">
            -97 vlineto
            87 callsubr
            return
          </CharString>
          <CharString index="413">
            199 callgsubr
            71 return
          </CharString>
          <CharString index="414">
            46 39 6 5 23 return
          </CharString>
          <CharString index="415">
            -125 rlineto
            36 hlineto
            return
          </CharString>
          <CharString index="416">
            vlineto
            6 21 32 2 return
          </CharString>
          <CharString index="417">
            -50 -28 -15 -67 -68 return
          </CharString>
          <CharString index="418">
            103 44 51 83 return
          </CharString>
          <CharString index="419">
            71 -59 callgsubr
            return
          </CharString>
          <CharString index="420">
            66 674 rmoveto
            return
          </CharString>
          <CharString index="421">
            vlineto
            -273 -288 rlineto
            94 hlineto
            125 130 return
          </CharString>
          <CharString index="422">
            -81 -23 32 44 hvcurveto
            52 vlineto
            39 20 24 63 vhcurveto
            return
          </CharString>
          <CharString index="423">
            -52 109 108 48 50 88 vhcurveto
            44 vlineto
            88 return
          </CharString>
          <CharString index="424">
            -18 callgsubr
            -97 -46 return
          </CharString>
          <CharString index="425">
            15 23 148 callsubr
            return
          </CharString>
          <CharString index="426">
            83 336 157 rmoveto
            323 callsubr
            return
          </CharString>
          <CharString index="427">
            -182 rmoveto
            -73 callgsubr
            return
          </CharString>
          <CharString index="428">
            vlineto
            -86 49 -49 109 112 40 53 78 vhcurveto
            return
          </CharString>
          <CharString index="429">
            vlineto
            -99 72 -48 115 return
          </CharString>
          <CharString index="430">
            -52 -23 -36 -67 vhcurveto
            -98 return
          </CharString>
          <CharString index="431">
            0 callsubr
            167 vlineto
            return
          </CharString>
          <CharString index="432">
            vlineto
            -103 -54 -42 -88 hvcurveto
            return
          </CharString>
          <CharString index="433">
            -5 -29 hhcurveto
            -60 return
          </CharString>
          <CharString index="434">
            -85 48 -49 103 return
          </CharString>
          <CharString index="435">
            -46 151 rlineto
            56 -17 -31 22 -47 hhcurveto
            -11 return
          </CharString>
          <CharString index="436">
            118 callsubr
            -95 return
          </CharString>
          <CharString index="437">
            -62 306 -89 -74 vlineto
            -106 -50 -41 -88 hvcurveto
            return
          </CharString>
          <CharString index="438">
            -84 vlineto
            -79 -10 -36 -47 -72 vvcurveto
            -248 vlineto
            return
          </CharString>
          <CharString index="439">
            rmoveto
            -39 108 rlineto
            -71 hlineto
            61 -108 rlineto
            return
          </CharString>
          <CharString index="440">
            -6 -19 -24 -4 -33 hhcurveto
            -57 -20 23 39 hvcurveto
            return
          </CharString>
          <CharString index="441">
            29 10 17 23 22 -10 17 -29 hvcurveto
            endchar
          </CharString>
          <CharString index="442">
            -169 vlineto
            327 callsubr
            return
          </CharString>
          <CharString index="443">
            63 vhcurveto
            27 hlineto
            111 32 return
          </CharString>
          <CharString index="444">
            hlineto
            -108 -50 -51 -86 hvcurveto
            return
          </CharString>
          <CharString index="445">
            vhcurveto
            -77 -145 rlineto
            76 hlineto
            return
          </CharString>
          <CharString index="446">
            -124 hlineto
            7 -19 -24 4 return
          </CharString>
          <CharString index="447">
            rlineto
            50 45 32 32 75 vvcurveto
            return
          </CharString>
          <CharString index="448">
            rcurveline
            75 -32 80 24 89 vvcurveto
            return
          </CharString>
          <CharString index="449">
            11 19 26 25 -11 20 -33 return
          </CharString>
          <CharString index="450" raw="1">
            08dd0a0b   
          </CharString>
          <CharString index="451">
            rmoveto
            155 98 62 return
          </CharString>
          <CharString index="452">
            19 -13 -27 19 hvcurveto
            return
          </CharString>
          <CharString index="453">
            120 vlineto
            39 return
          </CharString>
          <CharString index="454">
            hhcurveto
            53 16 -18 -35 hvcurveto
            -39 vlineto
            -30 -7 return
          </CharString>
          <CharString index="455">
            61 callsubr
            -395 return
          </CharString>
          <CharString index="456">
            -84 callgsubr
            -95 hlineto
            0 return
          </CharString>
          <CharString index="457">
            -62 77 -338 hlineto
            -83 46 -54 113 return
          </CharString>
          <CharString index="458">
            155 36 rlineto
            57 vlineto
            -155 -36 rlineto
            return
          </CharString>
          <CharString index="459">
            311 callgsubr
            endchar
          </CharString>
          <CharString index="460">
            26 vlineto
            118 return
          </CharString>
          <CharString index="461">
            2 22 hhcurveto
            61 return
          </CharString>
        <CharString name=".notdef">
          365 174 hmoveto
          403 701 -403 hlineto
          62 -57 rmoveto
          280 -587 -280 hlineto
          endchar
        </CharString>
        <CharString name="A">
          56 147 253 -74 callgsubr
        </CharString>
        <CharString name="AE">
          279 197 253 rmoveto
          157 365 rlineto
          -365 vlineto
          295 351 rmoveto
          70 -342 vlineto
          -300 -674 rlineto
          81 hlineto
          80 185 rlineto
          186 -185 295 19 callsubr
          hlineto
          endchar
        </CharString>
        <CharString name="Aacute">
          56 306 823 rmoveto
          -71 hlineto
          -39 -108 rlineto
          49 hlineto
          -98 -462 -74 callgsubr
        </CharString>
        <CharString name="Abreve">
          56 279 823 19 callgsubr
          -185 -570 -74 callgsubr
        </CharString>
        <CharString name="Acircumflex">
          56 224 777 -19 callsubr
          -40 -462 -74 callgsubr
        </CharString>
        <CharString name="Adieresis">
          56 290 729 145 callsubr
          -5 -476 -74 callgsubr
        </CharString>
        <CharString name="Agrave">
          56 241 715 332 callsubr
          -45 -462 -74 callgsubr
        </CharString>
        <CharString name="Amacron">
          56 332 794 rmoveto
          -226 -50 226 hlineto
          -185 -491 -74 callgsubr
        </CharString>
        <CharString name="Aogonek">
          56 147 253 rmoveto
          73 346 75 -346 rlineto
          132 -253 rmoveto
          -150 674 rlineto
          -111 hlineto
          -150 -674 rlineto
          78 hlineto
          39 185 rlineto
          176 hlineto
          40 -185 rlineto
          39 hlineto
          -26 callgsubr
          endchar
        </CharString>
        <CharString name="Aring">
          56 221 803 rmoveto
          21 13 -14 -20 -22 -13 -13 -21 -21 -13 13 22 20 13 14 21 hvcurveto
          -108 vmoveto
          49 26 34 40 40 -26 33 -49 -48 -27 -33 -40 -40 27 -34 48 hvcurveto
          -74 -442 -74 callgsubr
        </CharString>
        <CharString name="Atilde">
          56 152 733 rmoveto
          21 6 11 16 vhcurveto
          32 29 -40 47 hhcurveto
          44 24 29 48 hvcurveto
          13 -53 -11 vlineto
          -20 -5 -11 -17 vhcurveto
          -27 -32 40 -48 hhcurveto
          -48 -21 -34 -44 hvcurveto
          -12 53 vlineto
          -5 -470 -74 callgsubr
        </CharString>
        <CharString name="B">
          83 336 155 rmoveto
          -54 -27 -33 -65 vhcurveto
          -99 236 99 hlineto
          65 27 -33 -55 hvcurveto
          -98 390 rmoveto
          65 27 -33 -55 hvcurveto
          -57 vlineto
          -55 -27 -32 -65 vhcurveto
          -93 232 hlineto
          263 -85 rmoveto
          95 -54 58 -108 vhcurveto
          -180 -674 186 hlineto
          108 54 58 95 hvcurveto
          61 vlineto
          61 -24 46 -56 19 vhcurveto
          52 20 22 45 59 vvcurveto
          endchar
        </CharString>
        <CharString name="C">
          9 56 534 rmoveto
          -395 vlineto
          -89 57 -55 127 46 46 7 9 28 vhcurveto
          72 vlineto
          163 callgsubr
          386 vlineto
          31 callsubr
          endchar
        </CharString>
        <CharString name="CR">
          -387 endchar
        </CharString>
        <CharString name="Cacute">
          9 242 823 -52 callsubr
          -257 -289 rmoveto
          -395 vlineto
          -89 57 -55 127 46 46 7 9 28 vhcurveto
          72 vlineto
          163 callgsubr
          386 vlineto
          31 callsubr
          endchar
        </CharString>
        <CharString name="Ccaron">
          9 196 715 -50 callsubr
          -9 -293 rmoveto
          31 callsubr
          -395 196 callgsubr
        </CharString>
        <CharString name="Ccedilla">
          9 360 83 rmoveto
          163 callgsubr
          386 vlineto
          31 callsubr
          -395 vlineto
          -80 46 -52 101 -10 vhcurveto
          -14 -67 62 callgsubr
          8 35 rlineto
          45 45 7 9 27 hvcurveto
          endchar
        </CharString>
        <CharString name="D">
          81 189 callsubr
          108 callsubr
          84 -153 rmoveto
          -364 vlineto
          323 callsubr
          537 98 hlineto
          67 23 -34 -51 hvcurveto
          endchar
        </CharString>
        <CharString name="Dcaron">
          81 194 715 -50 callsubr
          190 -666 rmoveto
          323 callsubr
          537 233 callgsubr
          -674 108 callsubr
          endchar
        </CharString>
        <CharString name="Dcroat">
          319 callsubr
          233 97 67 -97 237 233 callgsubr
          -305 -61 -67 61 -302 108 callsubr
          endchar
        </CharString>
        <CharString name="E">
          13 66 674 218 callsubr
        </CharString>
        <CharString name="Eacute">
          13 230 823 -52 callsubr
          -235 -149 218 callsubr
        </CharString>
        <CharString name="Ecaron">
          13 184 715 -50 callsubr
          231 -219 rmoveto
          70 -298 -674 298 19 callsubr
          vlineto
          endchar
        </CharString>
        <CharString name="Ecircumflex">
          13 210 777 -19 callsubr
          191 -111 rmoveto
          70 -298 -674 298 19 callsubr
          vlineto
          endchar
        </CharString>
        <CharString name="Edieresis">
          13 108 768 -87 callsubr
          -180 -94 218 callsubr
        </CharString>
        <CharString name="Edotaccent">
          13 189 callsubr
          298 19 callsubr
          219 70 vlineto
          -185 114 61 callgsubr
        </CharString>
        <CharString name="Egrave">
          13 189 callsubr
          298 19 callsubr
          219 70 vlineto
          -233 149 45 callsubr
        </CharString>
        <CharString name="Emacron">
          13 189 callsubr
          298 19 callsubr
          219 70 vlineto
          -262 120 188 callsubr
          endchar
        </CharString>
        <CharString name="Eogonek">
          13 364 604 rmoveto
          70 -298 -674 260 203 callsubr
          19 callsubr
          vlineto
          endchar
        </CharString>
        <CharString name="Eth">
          319 callsubr
          228 103 67 -103 242 233 callgsubr
          -310 -72 -67 72 -297 108 callsubr
          endchar
        </CharString>
        <CharString name="Euro">
          26 147 247 rmoveto
          148 56 -148 77 148 57 -148 93 hlineto
          31 callsubr
          -97 -52 -57 52 -77 -52 -56 52 -108 196 callgsubr
        </CharString>
        <CharString name="F">
          -13 198 callsubr
          290 198 70 -198 244 209 70 vlineto
          endchar
        </CharString>
        <CharString name="G">
          -9 callgsubr
          endchar
        </CharString>
        <CharString name="Gbreve">
          -9 callgsubr
          233 294 19 callgsubr
          endchar
        </CharString>
        <CharString name="H">
          111 352 674 rmoveto
          -308 -206 308 -80 -674 80 295 206 -295 80 674 vlineto
          endchar
        </CharString>
        <CharString name="I">
          111 callgsubr
          endchar
        </CharString>
        <CharString name="Iacute">
          111 callgsubr
          -28 149 135 callsubr
        </CharString>
        <CharString name="Icircumflex">
          -175 66 hmoveto
          80 674 -80 hlineto
          76 149 rmoveto
          -64 hlineto
          -51 -108 rlineto
          46 hlineto
          37 62 36 -62 rlineto
          47 hlineto
          endchar
        </CharString>
        <CharString name="Idieresis">
          111 callgsubr
          -150 94 44 callgsubr
        </CharString>
        <CharString name="Idotaccent">
          111 callgsubr
          -83 114 61 callgsubr
        </CharString>
        <CharString name="Igrave">
          111 callgsubr
          -123 149 45 callsubr
        </CharString>
        <CharString name="Imacron">
          111 callgsubr
          -151 120 188 callsubr
          endchar
        </CharString>
        <CharString name="Iogonek">
          -175 146 674 rmoveto
          -80 -674 42 hlineto
          -26 callgsubr
          endchar
        </CharString>
        <CharString name="J">
          -174 68 674 rmoveto
          -476 vlineto
          -99 -14 -63 -23 -80 vhcurveto
          -30 -105 rlineto
          81 hlineto
          31 104 rlineto
          19 66 15 65 113 vvcurveto
          475 vlineto
          endchar
        </CharString>
        <CharString name="K">
          159 callsubr
          endchar
        </CharString>
        <CharString name="L">
          -34 66 674 227 callgsubr
        </CharString>
        <CharString name="Lacute">
          -34 118 823 -52 callsubr
          -123 -149 227 callgsubr
        </CharString>
        <CharString name="Lcaron">
          -34 212 721 107 callsubr
          -176 -47 227 callgsubr
        </CharString>
        <CharString name="Lslash">
          -34 149 68 rmoveto
          250 vlineto
          95 47 rlineto
          61 vlineto
          -95 -48 rlineto
          296 -80 -336 vlineto
          -55 -28 rlineto
          -60 vlineto
          55 28 rlineto
          -278 282 68 vlineto
          endchar
        </CharString>
        <CharString name="M">
          228 456 674 rmoveto
          -149 -415 -149 415 rlineto
          -92 -674 75 344 hlineto
          106 -8 93 0 vhcurveto
          134 -364 rlineto
          79 hlineto
          134 364 rlineto
          0 -7 -84 -116 vvcurveto
          -343 75 674 vlineto
          endchar
        </CharString>
        <CharString name="N">
          116 358 674 98 callsubr
        </CharString>
        <CharString name="NULL">
          -387 endchar
        </CharString>
        <CharString name="Nacute">
          116 265 823 -52 callsubr
          22 92 callsubr
        </CharString>
        <CharString name="Ncaron">
          116 220 715 -50 callsubr
          189 92 callsubr
        </CharString>
        <CharString name="Ntilde">
          116 358 674 -51 callgsubr
          -104 141 -52 callgsubr
        </CharString>
        <CharString name="O">
          77 callsubr
          endchar
        </CharString>
        <CharString name="OE">
          287 245 69 rmoveto
          -67 -23 36 52 hvcurveto
          364 vlineto
          51 23 34 67 vhcurveto
          102 -537 hlineto
          298 535 rmoveto
          70 -406 vlineto
          -109 -54 -61 -90 hvcurveto
          -369 vlineto
          -91 49 -63 111 vhcurveto
          409 19 callsubr
          hlineto
          endchar
        </CharString>
        <CharString name="Oacute">
          73 245 823 -52 callsubr
          -260 -300 -81 callgsubr
          endchar
        </CharString>
        <CharString name="Ocircumflex">
          73 230 777 -19 callsubr
          132 -562 rmoveto
          -55 -27 -37 -68 -69 -26 37 55 vhcurveto
          368 vlineto
          55 26 36 69 68 27 -37 -54 vhcurveto
          -269 -371 rmoveto
          -91 55 122 callsubr
          373 vlineto
          92 -54 69 -119 -119 -55 -69 -92 vhcurveto
          endchar
        </CharString>
        <CharString name="Odieresis">
          73 121 768 -87 callsubr
          -203 -245 -81 callgsubr
          endchar
        </CharString>
        <CharString name="Ograve">
          77 callsubr
          -186 302 45 callsubr
        </CharString>
        <CharString name="Ohungarumlaut">
          73 290 823 33 callgsubr
          -211 -300 -81 callgsubr
          endchar
        </CharString>
        <CharString name="Omacron">
          73 118 794 188 callsubr
          -288 -271 -81 callgsubr
          endchar
        </CharString>
        <CharString name="Oslash">
          73 325 153 rmoveto
          -55 -27 -37 -68 -38 -25 11 20 -15 vhcurveto
          173 398 rlineto
          -190 31 rmoveto
          55 26 36 69 38 25 -11 -20 15 vhcurveto
          -173 -397 rlineto
          270 490 rmoveto
          -57 hlineto
          -8 -19 rlineto
          19 -27 -37 10 -46 hhcurveto
          -119 -55 -69 -92 hvcurveto
          -373 vlineto
          -35 8 -31 16 -26 vhcurveto
          -25 -58 rlineto
          57 hlineto
          8 18 rlineto
          -18 27 37 -10 46 hhcurveto
          119 54 69 91 hvcurveto
          373 vlineto
          35 -8 31 -16 26 vhcurveto
          endchar
        </CharString>
        <CharString name="Otilde">
          77 callsubr
          -22 294 -52 callgsubr
        </CharString>
        <CharString name="P">
          55 189 callsubr
          79 228 91 vlineto
          109 54 60 91 hvcurveto
          144 vlineto
          90 -54 61 -109 vhcurveto
          85 -157 rmoveto
          -133 vlineto
          -54 -25 -33 -65 vhcurveto
          -86 307 86 hlineto
          65 25 -32 -55 hvcurveto
          endchar
        </CharString>
        <CharString name="Q">
          73 135 521 rmoveto
          55 26 36 69 68 27 -37 -54 vhcurveto
          -368 vlineto
          -55 -27 -37 -68 -69 -26 37 55 vhcurveto
          315 -252 rmoveto
          -109 118 rlineto
          42 29 20 47 55 vvcurveto
          373 vlineto
          92 -54 69 -119 -119 -55 -69 -92 vhcurveto
          -373 vlineto
          -91 55 -69 119 14 13 1 2 12 vhcurveto
          84 -92 rlineto
          endchar
        </CharString>
        <CharString name="R">
          72 145 605 11 callgsubr
        </CharString>
        <CharString name="Racute">
          72 312 823 rmoveto
          -71 hlineto
          -39 -108 rlineto
          49 hlineto
          -106 -110 11 callgsubr
        </CharString>
        <CharString name="Rcaron">
          72 192 715 -50 callsubr
          4 -218 11 callgsubr
        </CharString>
        <CharString name="S">
          6 27 535 -70 callgsubr
          endchar
        </CharString>
        <CharString name="Sacute">
          6 211 823 -52 callsubr
          -255 -288 -70 callgsubr
          endchar
        </CharString>
        <CharString name="Scaron">
          6 169 715 -50 callsubr
          47 -428 rmoveto
          -42 23 -16 22 46 vvcurveto
          45 vlineto
          48 30 27 69 52 47 -8 -11 30 vhcurveto
          75 vlineto
          8 -26 -46 9 -58 hhcurveto
          -120 -58 -56 -88 hvcurveto
          -59 vlineto
          -69 32 -42 56 -30 vhcurveto
          114 -63 rlineto
          41 -22 13 -20 -43 vvcurveto
          -39 vlineto
          -47 -31 -33 -84 -51 -52 11 12 -32 vhcurveto
          -76 vlineto
          -9 25 53 -11 58 hhcurveto
          132 61 56 91 hvcurveto
          55 vlineto
          64 -26 39 -55 30 vhcurveto
          endchar
        </CharString>
        <CharString name="T">
          -31 348 674 135 callgsubr
        </CharString>
        <CharString name="Tcaron">
          -31 145 715 -50 callsubr
          254 -149 135 callgsubr
        </CharString>
        <CharString name="Thorn">
          45 329 275 rmoveto
          -54 -25 -31 -65 vhcurveto
          -86 296 86 hlineto
          65 25 -33 -54 hvcurveto
          -176 155 rmoveto
          120 -77 -674 77 120 90 vlineto
          108 55 60 91 hvcurveto
          132 vlineto
          91 -55 60 -108 vhcurveto
          endchar
        </CharString>
        <CharString name="U">
          51 callgsubr
          endchar
        </CharString>
        <CharString name="Uacute">
          82 249 823 -52 callsubr
          9 -149 -60 callsubr
          endchar
        </CharString>
        <CharString name="Ucircumflex">
          82 234 777 -19 callsubr
          132 -41 -60 callsubr
          endchar
        </CharString>
        <CharString name="Udieresis">
          82 125 768 -87 callsubr
          66 -94 -60 callsubr
          endchar
        </CharString>
        <CharString name="Ugrave">
          51 callgsubr
          -258 149 45 callsubr
        </CharString>
        <CharString name="Uhungarumlaut">
          51 callgsubr
          -119 149 33 callgsubr
          endchar
        </CharString>
        <CharString name="Umacron">
          51 callgsubr
          -286 120 188 callsubr
          endchar
        </CharString>
        <CharString name="Uogonek">
          82 329 674 rmoveto
          -521 vlineto
          -55 -26 -37 -69 -68 -26 37 55 vhcurveto
          521 -79 -524 vlineto
          -91 54 -69 119 12 12 1 1 11 vhcurveto
          -24 -25 -17 -33 -33 vvcurveto
          -45 29 -25 54 vhcurveto
          16 50 -12 hlineto
          -24 -12 10 26 33 17 33 28 24 hvcurveto
          57 26 26 53 64 vvcurveto
          524 vlineto
          endchar
        </CharString>
        <CharString name="Uring">
          82 161 769 8 callgsubr
          59 -95 -60 callsubr
          endchar
        </CharString>
        <CharString name="V">
          39 332 674 rmoveto
          -68 -330 -17 -89 -20 -116 -13 -64 rlinecurve
          -14 64 -20 115 -18 90 -69 330 rcurveline
          -81 hlineto
          146 -674 rlineto
          111 hlineto
          145 674 rlineto
          endchar
        </CharString>
        <CharString name="W">
          220 514 674 rmoveto
          -62 -384 rlineto
          -12 -73 -12 -105 0 vvcurveto
          0 -14 105 -10 73 vhcurveto
          -61 384 rlineto
          -78 hlineto
          -61 -383 rlineto
          -14 -90 -11 -91 0 vvcurveto
          0 -9 92 -14 88 vhcurveto
          -62 384 rlineto
          -75 hlineto
          109 -674 rlineto
          92 hlineto
          55 330 rlineto
          20 113 9 109 0 vvcurveto
          0 10 -106 20 -117 vhcurveto
          55 -329 rlineto
          90 hlineto
          109 674 rlineto
          endchar
        </CharString>
        <CharString name="X">
          12 302 674 rmoveto
          -102 -250 -102 250 rlineto
          -86 hlineto
          146 -338 -146 -336 rlineto
          86 hlineto
          102 248 101 -248 rlineto
          86 hlineto
          -147 336 147 338 rlineto
          endchar
        </CharString>
        <CharString name="Y">
          29 333 674 46 callsubr
          endchar
        </CharString>
        <CharString name="Yacute">
          29 333 674 46 callsubr
          -193 149 135 callsubr
        </CharString>
        <CharString name="Ydieresis">
          29 95 768 -87 callsubr
          100 -94 46 callsubr
          endchar
        </CharString>
        <CharString name="Z">
          192 callsubr
          endchar
        </CharString>
        <CharString name="Zacute">
          -1 205 823 -52 callsubr
          -243 -149 rmoveto
          -69 241 vlineto
          116 callgsubr
          67 vlineto
          endchar
        </CharString>
        <CharString name="Zcaron">
          -1 164 715 -50 callsubr
          245 -149 rmoveto
          -325 -69 241 hlineto
          116 callgsubr
          endchar
        </CharString>
        <CharString name="Zdotaccent">
          192 callsubr
          -206 114 61 callgsubr
        </CharString>
        <CharString name="a">
          -100 callgsubr
          endchar
        </CharString>
        <CharString name="aacute">
          -100 callgsubr
          -68 447 135 callsubr
        </CharString>
        <CharString name="abreve">
          -100 callgsubr
          -18 447 19 callgsubr
          endchar
        </CharString>
        <CharString name="acircumflex">
          39 215 677 -19 callsubr
          110 -519 rmoveto
          -19 -23 -37 -17 -43 hhcurveto
          -58 -19 25 48 hvcurveto
          30 vlineto
          44 15 22 58 17 vhcurveto
          107 30 rlineto
          -230 208 rmoveto
          10 27 53 10 50 hhcurveto
          81 19 -27 -49 1 hvcurveto
          -84 vlineto
          -137 -38 rlineto
          -85 -24 -37 -44 -72 vvcurveto
          -32 vlineto
          -88 41 -49 98 65 29 20 24 27 vhcurveto
          -41 75 427 vlineto
          94 -47 55 -126 -55 -52 -10 -9 -27 vhcurveto
          endchar
        </CharString>
        <CharString name="acute">
          -37 159 723 135 callsubr
        </CharString>
        <CharString name="adieresis">
          -100 callgsubr
          -187 392 44 callgsubr
        </CharString>
        <CharString name="ae">
          263 327 530 rmoveto
          29 -26 -44 17 -66 hhcurveto
          -55 -52 -11 -8 -26 hvcurveto
          -74 vlineto
          10 27 52 11 51 hhcurveto
          81 19 -28 -46 hvcurveto
          -84 vlineto
          -136 -40 rlineto
          -84 -24 -36 -44 -72 vvcurveto
          -33 vlineto
          -87 45 -50 98 62 58 18 27 34 vhcurveto
          -30 30 50 -16 71 hhcurveto
          58 36 8 8 29 hvcurveto
          73 vlineto
          -9 -28 -42 -9 -48 hhcurveto
          -84 -36 28 57 hvcurveto
          96 254 178 vlineto
          89 -47 67 -116 -61 -43 -25 -26 -25 vhcurveto
          -38 -438 rmoveto
          -19 -24 -38 -13 -42 hhcurveto
          -56 -21 24 49 hvcurveto
          30 vlineto
          44 15 23 58 16 vhcurveto
          108 31 rlineto
          255 147 rmoveto
          -112 -179 112 vlineto
          53 27 36 64 64 24 -36 -53 vhcurveto
          endchar
        </CharString>
        <CharString name="agrave">
          -100 callgsubr
          -166 447 45 callsubr
        </CharString>
        <CharString name="amacron">
          -100 callgsubr
          -192 418 188 callsubr
          endchar
        </CharString>
        <CharString name="ampersand">
          75 328 153 rmoveto
          -55 -29 -37 -68 -69 -30 37 55 vhcurveto
          69 vlineto
          53 23 37 64 vhcurveto
          109 hlineto
          120 69 rmoveto
          -43 60 -77 -60 -110 hlineto
          -65 -20 37 55 hvcurveto
          50 vlineto
          47 23 36 92 49 43 -9 -11 32 vhcurveto
          75 vlineto
          9 -27 -45 9 -53 hhcurveto
          -136 -57 -62 -89 hvcurveto
          -56 vlineto
          -62 26 -43 50 -19 vhcurveto
          -52 -19 -25 -43 -62 vvcurveto
          -72 vlineto
          -92 59 -69 119 118 56 69 92 vhcurveto
          160 43 vlineto
          endchar
        </CharString>
        <CharString name="aogonek">
          39 288 96 rmoveto
          -19 -23 -37 -17 -43 hhcurveto
          -58 -19 25 48 hvcurveto
          30 vlineto
          44 15 22 58 17 vhcurveto
          107 30 rlineto
          -230 208 rmoveto
          10 27 53 10 50 hhcurveto
          81 19 -27 -49 1 hvcurveto
          -84 vlineto
          -137 -38 rlineto
          -85 -24 -37 -44 -72 vvcurveto
          -32 vlineto
          -88 41 -49 98 65 29 20 24 27 vhcurveto
          -41 36 203 callsubr
          1 427 hlineto
          94 -47 55 -126 -55 -52 -10 -9 -27 vhcurveto
          endchar
        </CharString>
        <CharString name="apostrophemod">
          209 callsubr
        </CharString>
        <CharString name="approxequal">
          92 371 315 rmoveto
          10 -58 -40 -10 253 callsubr
          -17 3 -15 0 vhcurveto
          65 hlineto
          -10 57 42 9 50 -22 93 -39 341 callsubr
          17 -3 15 0 vhcurveto
          -65 159 rmoveto
          10 -58 -40 -11 253 callsubr
          -16 3 -16 0 vhcurveto
          65 hlineto
          -10 58 42 9 50 -22 93 -40 341 callsubr
          18 -3 15 0 vhcurveto
          endchar
        </CharString>
        <CharString name="aring">
          -100 callgsubr
          -154 393 8 callgsubr
          endchar
        </CharString>
        <CharString name="asciicircum">
          -58 322 381 rmoveto
          -109 290 rlineto
          -100 hlineto
          -110 -290 rlineto
          76 hlineto
          84 247 83 -247 rlineto
          endchar
        </CharString>
        <CharString name="asciitilde">
          59 354 399 rmoveto
          10 -58 -40 -10 253 callsubr
          -17 2 -15 0 vhcurveto
          65 hlineto
          -10 57 43 10 50 -23 93 -39 341 callsubr
          18 -3 14 0 vhcurveto
          endchar
        </CharString>
        <CharString name="asterisk">
          114 446 624 rmoveto
          -21 66 -95 -31 -24 -8 -17 -9 -11 -9 rlinecurve
          5 13 3 19 25 vvcurveto
          100 -69 -100 vlineto
          -25 4 -19 4 -13 vhcurveto
          -11 9 -17 9 -24 8 -95 30 rcurveline
          -21 -65 95 -31 rlineto
          -8 24 19 -2 14 hhcurveto
          -12 -8 -13 -14 -15 -20 -59 -80 rcurveline
          56 -41 59 81 15 20 8 17 4 14 rlinecurve
          4 -14 8 -17 15 -20 59 -81 rcurveline
          55 41 -59 81 -14 20 -14 13 -12 8 rlinecurve
          15 19 2 8 24 hvcurveto
          endchar
        </CharString>
        <CharString name="at">
          476 504 130 rmoveto
          0 -32 -26 -53 -40 -22 15 41 vhcurveto
          17 vlineto
          46 22 11 42 13 vhcurveto
          83 25 rlineto
          18 -387 rmoveto
          63 -86 vlineto
          -233 -62 125 202 202 61 126 234 234 61 -117 -203 -152 -36 -44 -56 -48 -22 22 55 hvcurveto
          227 vlineto
          75 -40 47 -95 -45 -45 -8 -8 -32 vhcurveto
          -60 vlineto
          12 47 32 6 43 hhcurveto
          57 13 -27 -39 hvcurveto
          -56 vlineto
          -104 -33 rlineto
          -68 -22 -43 -29 -73 vvcurveto
          -16 vlineto
          -73 43 -40 78 63 36 19 10 15 vhcurveto
          -31 19 37 -19 56 hhcurveto
          102 62 68 189 242 -89 141 -275 -271 -94 -151 -240 -241 90 -149 274 hvcurveto
          endchar
        </CharString>
        <CharString name="atilde">
          -100 callgsubr
          -4 439 -52 callgsubr
        </CharString>
        <CharString name="b">
          62 66 723 rmoveto
          -723 178 vlineto
          88 60 50 98 hvcurveto
          294 vlineto
          86 -53 46 -79 -47 -45 -15 -9 -23 vhcurveto
          173 vlineto
          168 -292 rmoveto
          -276 vlineto
          -58 -32 -25 -56 vhcurveto
          -80 405 hlineto
          12 30 34 11 35 hhcurveto
          43 26 -21 -48 hvcurveto
          endchar
        </CharString>
        <CharString name="backslash">
          14 33 794 rmoveto
          270 -932 rlineto
          71 hlineto
          -270 932 rlineto
          endchar
        </CharString>
        <CharString name="bar">
          -178 75 811 rmoveto
          -965 59 965 vlineto
          endchar
        </CharString>
        <CharString name="braceleft">
          -30 206 658 rmoveto
          39 20 25 57 vhcurveto
          18 67 -21 hlineto
          -92 -51 -51 -82 hvcurveto
          -227 vlineto
          -43 -26 -26 -50 vhcurveto
          -3 -67 3 hlineto
          50 26 -27 -43 hvcurveto
          -227 vlineto
          -82 51 -51 92 vhcurveto
          21 67 -18 hlineto
          -57 -20 25 39 hvcurveto
          207 vlineto
          73 -17 43 -70 9 vhcurveto
          70 10 17 45 73 vvcurveto
          endchar
        </CharString>
        <CharString name="braceright">
          -31 294 360 rmoveto
          -49 -26 26 43 hvcurveto
          227 vlineto
          82 -51 51 -92 vhcurveto
          -22 -67 18 hlineto
          58 19 -25 -39 hvcurveto
          -204 vlineto
          -73 18 -45 69 -10 vhcurveto
          -69 -9 -18 -43 -73 vvcurveto
          -207 vlineto
          -39 -19 -25 -58 vhcurveto
          -18 -67 22 hlineto
          92 51 51 82 hvcurveto
          227 vlineto
          43 26 27 49 vhcurveto
          3 67 hlineto
          endchar
        </CharString>
        <CharString name="bracketleft">
          -84 149 -76 rmoveto
          808 123 62 -190 -932 190 62 vlineto
          endchar
        </CharString>
        <CharString name="bracketright">
          -84 31 794 rmoveto
          -62 123 -808 -123 -62 190 932 vlineto
          endchar
        </CharString>
        <CharString name="breve">
          -37 233 723 19 callgsubr
          endchar
        </CharString>
        <CharString name="brokenbar">
          -178 75 811 rmoveto
          -379 59 379 vlineto
          -59 -586 rmoveto
          -379 59 379 vlineto
          endchar
        </CharString>
        <CharString name="bullet">
          -119 58 327 rmoveto
          -44 19 -31 56 56 19 31 44 42 -19 33 -56 -56 -19 -33 -42 vhcurveto
          endchar
        </CharString>
        <CharString name="c">
          -16 56 430 rmoveto
          -290 vlineto
          -93 51 -52 120 49 33 7 7 28 vhcurveto
          74 vlineto
          50 callgsubr
          endchar
        </CharString>
        <CharString name="cacute">
          -16 240 723 -52 callsubr
          -255 -293 rmoveto
          -290 vlineto
          -93 51 -52 120 49 33 7 7 28 vhcurveto
          74 vlineto
          50 callgsubr
          endchar
        </CharString>
        <CharString name="caron">
          -37 211 723 rmoveto
          -36 -62 -37 62 rlineto
          -46 hlineto
          51 -108 rlineto
          64 hlineto
          51 108 rlineto
          endchar
        </CharString>
        <CharString name="ccaron">
          -16 189 615 -50 callsubr
          -3 -297 rmoveto
          50 20 27 80 38 37 -6 -7 25 vhcurveto
          72 vlineto
          8 -26 -34 6 -48 hhcurveto
          -120 -51 -53 -93 hvcurveto
          -290 vlineto
          -93 51 -52 120 49 33 7 7 28 vhcurveto
          74 vlineto
          -9 -25 -36 -7 -41 hhcurveto
          -80 -20 27 50 hvcurveto
          endchar
        </CharString>
        <CharString name="ccedilla">
          -16 337 83 rmoveto
          50 callgsubr
          -290 vlineto
          -82 40 -50 92 -11 vhcurveto
          -14 -67 62 callgsubr
          8 35 rlineto
          48 33 7 7 28 hvcurveto
          endchar
        </CharString>
        <CharString name="cedilla">
          -37 148 6 rmoveto
          -16 -76 62 callgsubr
          10 46 rlineto
          endchar
        </CharString>
        <CharString name="cent">
          11 345 83 rmoveto
          -9 -25 -36 -7 -41 hhcurveto
          -80 -20 27 50 hvcurveto
          282 vlineto
          50 20 27 80 38 37 -6 -7 25 vhcurveto
          72 vlineto
          -20 6 -24 5 -31 2 rrcurveto
          79 -72 -80 vlineto
          -92 -11 -40 -51 -82 vvcurveto
          -290 vlineto
          -82 40 -50 91 -11 vhcurveto
          -73 72 72 vlineto
          32 2 25 6 21 5 rrcurveto
          endchar
        </CharString>
        <CharString name="circumflex">
          -37 258 615 rmoveto
          -51 108 rlineto
          -64 hlineto
          -51 -108 rlineto
          46 hlineto
          37 62 36 -62 rlineto
          endchar
        </CharString>
        <CharString name="colon">
          -179 32 393 253 callgsubr
          20 -35 -36 -12 -20 -29 vhcurveto
          -351 vmoveto
          105 callgsubr
        </CharString>
        <CharString name="comma">
          -234 240 callsubr
          endchar
        </CharString>
        <CharString name="copyright">
          302 46 325 rmoveto
          -189 61 -136 238 235 63 139 186 191 -52 136 -246 -242 -57 -139 -188 vhcurveto
          180 56 rmoveto
          -110 vlineto
          -77 33 -47 99 30 29 5 2 16 vhcurveto
          60 vlineto
          -7 -25 -17 -3 -33 hhcurveto
          -65 -4 29 39 hvcurveto
          108 vlineto
          38 4 30 65 32 18 -3 -7 24 vhcurveto
          59 vlineto
          4 -16 -28 4 -30 hhcurveto
          -99 -33 -47 -77 hvcurveto
          353 -56 rmoveto
          -152 -32 -112 -202 -206 -29 109 155 155 26 111 209 210 24 -109 -157 vhcurveto
          endchar
        </CharString>
        <CharString name="currency">
          73 146 377 rmoveto
          55 17 31 68 68 17 -31 -55 vhcurveto
          -80 vlineto
          -55 -17 -31 -68 -68 -17 31 55 vhcurveto
          246 81 rmoveto
          29 -4 26 -10 22 vhcurveto
          46 45 -50 49 -41 -41 rlineto
          16 -25 -33 8 -44 hhcurveto
          -44 -33 -8 -16 -25 hvcurveto
          -41 41 -50 -49 46 -45 rlineto
          -10 -22 -4 -26 -29 vvcurveto
          -83 vlineto
          -29 4 -26 10 -21 vhcurveto
          -46 -45 49 -49 42 41 rlineto
          -16 25 33 -8 44 hhcurveto
          44 33 8 15 25 hvcurveto
          41 -40 49 49 -45 44 rlineto
          10 22 4 26 29 vvcurveto
          endchar
        </CharString>
        <CharString name="d">
          61 85 callgsubr
          endchar
        </CharString>
        <CharString name="dagger">
          -31 143 784 rmoveto
          -65 6 -73 0 vhcurveto
          232 callgsubr
          0 -6 -72 -73 vvcurveto
          -479 71 479 vlineto
          73 -6 72 0 vhcurveto
          0 48 -5 56 vhcurveto
          62 vlineto
          -56 -48 -6 0 hvcurveto
          0 6 73 65 vvcurveto
          endchar
        </CharString>
        <CharString name="daggerdbl">
          -30 143 784 rmoveto
          -65 6 -73 0 vhcurveto
          232 callgsubr
          -2 -125 0 -184 2 -127 rrcurveto
          232 callgsubr
          0 -6 -52 -85 vvcurveto
          71 hlineto
          85 -6 52 0 vhcurveto
          318 callgsubr
          2 127 0 184 -2 125 rrcurveto
          318 callgsubr
          0 6 73 65 vvcurveto
          endchar
        </CharString>
        <CharString name="danda">
          -99 147 hmoveto
          72 652 -72 hlineto
          endchar
        </CharString>
        <CharString name="dcaron">
          69 85 callgsubr
          146 221 rmoveto
          -27 308 callsubr
          14 21 34 131 callsubr
          -17 vhcurveto
          endchar
        </CharString>
        <CharString name="dcroat">
          62 304 100 rmoveto
          -16 -17 -32 -16 -43 hhcurveto
          -51 -25 26 52 hvcurveto
          271 vlineto
          55 32 28 59 vhcurveto
          77 hlineto
          119 176 rmoveto
          -40 47 -79 -47 -125 -48 125 -57 -89 hlineto
          -96 -62 -55 -98 hvcurveto
          -279 vlineto
          -90 48 -52 92 58 32 21 16 19 vhcurveto
          -34 77 628 40 vlineto
          endchar
        </CharString>
        <CharString name="degree">
          -10 51 653 rmoveto
          -84 36 -64 103 104 37 64 84 83 -37 65 -104 -103 -36 -65 -83 vhcurveto
          216 -1 rmoveto
          -50 -13 -37 -64 -63 -12 37 50 50 12 37 63 64 13 -37 -50 vhcurveto
          endchar
        </CharString>
        <CharString name="dieresis">
          -37 66 668 44 callgsubr
        </CharString>
        <CharString name="divide">
          56 40 357 rmoveto
          -66 362 66 vlineto
          -224 -206 rmoveto
          -25 12 -20 34 33 11 264 callgsubr
          113 callsubr
          vhcurveto
          343 vmoveto
          141 callgsubr
          113 callsubr
          vhcurveto
          endchar
        </CharString>
        <CharString name="dollar">
          6 165 395 rmoveto
          -42 23 -16 22 46 vvcurveto
          45 vlineto
          48 30 27 69 52 47 -8 -11 30 vhcurveto
          75 vlineto
          -22 7 -36 7 -46 2 rrcurveto
          59 -73 -61 vlineto
          -88 -13 -43 -52 -76 vvcurveto
          -59 vlineto
          -69 32 -42 56 -30 vhcurveto
          114 -63 rlineto
          41 -22 13 -20 -43 vvcurveto
          -39 vlineto
          -47 -31 -33 -84 -51 -52 11 12 -32 vhcurveto
          -76 vlineto
          22 -8 44 -9 50 -3 rrcurveto
          -67 73 70 vlineto
          95 14 45 52 78 vvcurveto
          55 vlineto
          64 -26 39 -55 30 vhcurveto
          endchar
        </CharString>
        <CharString name="dotaccent">
          -37 133 688 61 callgsubr
        </CharString>
        <CharString name="dotlessi">
          110 callsubr
          endchar
        </CharString>
        <CharString name="dottedcircle">
          273 139 517 rmoveto
          -26 18 -19 26 26 18 19 26 25 -18 19 -26 -26 -18 -19 -25 vhcurveto
          -82 -110 rmoveto
          -25 20 -19 26 24 20 19 25 25 -20 19 -24 -26 -20 -19 -25 vhcurveto
          -13 -126 rmoveto
          -25 19 -18 25 26 18 18 349 callgsubr
          52 -116 rmoveto
          -26 18 -18 26 25 19 18 26 25 -19 19 -25 -26 -18 -19 -25 vhcurveto
          101 -75 rmoveto
          -26 19 -20 26 25 19 20 26 24 -19 20 -25 -26 -19 -20 -24 vhcurveto
          127 -16 rmoveto
          -26 18 -18 26 26 19 18 26 26 -19 18 -26 -26 -18 -18 -26 vhcurveto
          121 53 rmoveto
          -26 19 -18 25 25 20 18 26 25 -20 19 -25 -25 -19 -19 -25 vhcurveto
          73 98 rmoveto
          -25 19 -19 26 24 19 19 25 26 -19 19 -24 -26 -19 -19 -26 vhcurveto
          10 134 rmoveto
          -26 18 -18 26 25 19 18 26 26 -19 18 -25 -26 -18 -18 -26 vhcurveto
          -50 118 rmoveto
          -25 19 -19 25 26 18 19 349 callgsubr
          -95 68 rmoveto
          -24 19 -20 26 25 18 20 24 26 -18 19 -25 -26 -19 -19 -26 vhcurveto
          -126 15 rmoveto
          -26 18 -18 26 26 18 18 26 26 -18 18 -26 -26 -18 -18 -26 vhcurveto
          endchar
        </CharString>
        <CharString name="doubledanda">
          59 105 hmoveto
          72 652 -72 hlineto
          199 -652 rmoveto
          72 652 -72 hlineto
          endchar
        </CharString>
        <CharString name="dvA">
          180 425 -5 callgsubr
          -376 -115 vlineto
          -85 callsubr
          95 62 vlineto
          endchar
        </CharString>
        <CharString name="dvAA">
          411 824 -5 callgsubr
          -378 -55 callsubr
          vlineto
          endchar
        </CharString>
        <CharString name="dvAI">
          41 367 -5 callgsubr
          -157 229 rlineto
          -81 hlineto
          164 -229 rlineto
          -319 -62 91 -457 hlineto
          329 callgsubr
          66 vlineto
          -9 -27 -45 -10 -50 hhcurveto
          -68 -25 28 44 hvcurveto
          456 181 callsubr
          vlineto
          endchar
        </CharString>
        <CharString name="dvAU">
          412 726 -5 callgsubr
          -46 151 rlineto
          -19 callgsubr
          -110 -55 callsubr
          62 vlineto
          endchar
        </CharString>
        <CharString name="dvAbbreviationsign">
          -10 51 332 rmoveto
          -84 36 -62 103 104 37 62 84 84 -37 63 -104 -103 -36 -63 -84 vhcurveto
          64 -1 rmoveto
          50 12 37 63 64 13 -37 -50 -50 -13 -35 -64 -63 -12 35 50 vhcurveto
          endchar
        </CharString>
        <CharString name="dvAcandra">
          180 425 276 rmoveto
          -87 callgsubr
          95 62 -167 vlineto
          132 192 23 callgsubr
        </CharString>
        <CharString name="dvAnusvara">
          -387 -151 772 rmoveto
          -80 callsubr
          113 callsubr
          vhcurveto
          endchar
        </CharString>
        <CharString name="dvAnusvara.amI">
          -387 22 761 rmoveto
          -80 callsubr
          113 callsubr
          vhcurveto
          endchar
        </CharString>
        <CharString name="dvAvagraha">
          33 385 199 rmoveto
          62 -17 43 -64 37 vhcurveto
          -133 76 rlineto
          -39 22 -10 26 36 vvcurveto
          23 vlineto
          34 7 27 71 vhcurveto
          161 67 -164 hlineto
          -110 -37 -47 -79 hvcurveto
          -27 vlineto
          -59 21 -44 59 -33 vhcurveto
          134 -77 rlineto
          40 -23 8 -26 -37 vvcurveto
          -63 vlineto
          -41 -14 -34 -78 vhcurveto
          -3 hlineto
          -78 -15 34 41 hvcurveto
          67 -72 -65 vlineto
          -90 46 -54 117 vhcurveto
          7 hlineto
          117 46 54 90 hvcurveto
          endchar
        </CharString>
        <CharString name="dvB">
          -160 -26 -5 callgsubr
          -62 390 62 vlineto
          -320 -281 rmoveto
          -169 vlineto
          -86 49 -48 109 109 47 47 87 vhcurveto
          169 vlineto
          87 -47 47 -109 -112 266 callgsubr
          247 -150 rmoveto
          -165 192 rlineto
          18 13 23 11 41 hhcurveto
          66 22 -30 -44 hvcurveto
          -177 -11 rmoveto
          167 -195 rlineto
          -20 -12 -23 -11 -43 hhcurveto
          -69 259 callgsubr
          endchar
        </CharString>
        <CharString name="dvBA">
          38 114 334 -62 callgsubr
          -314 223 rmoveto
          -62 314 182 callsubr
          62 vlineto
          endchar
        </CharString>
        <CharString name="dvBH">
          21 256 186 63 callgsubr
          236 63 rmoveto
          -164 13 callsubr
          166 vlineto
          endchar
        </CharString>
        <CharString name="dvBHA">
          206 256 186 29 callgsubr
        </CharString>
        <CharString name="dvBH_LA">
          632 256 186 63 callgsubr
          130 315 rmoveto
          -62 491 -122 vlineto
          8 -19 -21 5 -31 hhcurveto
          -53 -36 -18 -28 -21 hvcurveto
          26 -17 -36 20 -55 hhcurveto
          -73 -45 -30 -51 -16 hvcurveto
          -126 13 callsubr
          120 -181 vlineto
          -99 49 -57 119 0 callgsubr
          vhcurveto
          65 vlineto
          -2 -14 -22 -3 -21 hhcurveto
          285 callgsubr
          12 29 60 57 -1 callsubr
          20 29 57 26 24 -5 -8 17 vhcurveto
          -401 -21 callsubr
        </CharString>
        <CharString name="dvBH_NA">
          585 643 187 104 callsubr
          -387 -158 63 callgsubr
          132 315 rmoveto
          -62 443 -110 -254 vlineto
          -74 -43 -27 -53 -14 hvcurveto
          -118 127 hlineto
          83 -43 47 -96 -97 -42 -47 -83 -26 4 -25 188 callgsubr
          26 23 vvcurveto
          38 10 27 57 291 callsubr
          -125 -70 vlineto
          -100 -40 -42 -80 hvcurveto
          -94 vlineto
          -80 40 -44 100 99 41 44 80 vhcurveto
          153 115 -151 vlineto
          -83 43 -43 93 92 43 43 83 vhcurveto
          -68 callgsubr
          62 hlineto
          endchar
        </CharString>
        <CharString name="dvBH_R">
          33 496 427 rmoveto
          -163 100 hlineto
          54 callgsubr
          -22 4 -25 0 vhcurveto
          73 hlineto
          0 -5 22 23 220 callgsubr
          -99 -41 -43 -80 hvcurveto
          -51 vlineto
          -80 41 -44 99 99 41 44 80 vhcurveto
          111 165 vlineto
          -82 vmoveto
          -302 -330 rlineto
          91 hlineto
          96 104 44 46 51 71 20 31 rlinecurve
          -235 50 100 callgsubr
          endchar
        </CharString>
        <CharString name="dvBH_RA">
          213 459 240 rmoveto
          85 callsubr
          -167 51 callsubr
          -99 -41 -43 -80 hvcurveto
          -51 vlineto
          -80 41 -44 99 99 41 44 80 vhcurveto
          111 128 vlineto
          -198 -110 100 callgsubr
          endchar
        </CharString>
        <CharString name="dvBH_R_YA">
          511 757 245 rmoveto
          -63 -6 -29 -30 -81 hhcurveto
          -91 -30 37 75 hvcurveto
          70 vlineto
          80 1 48 35 82 vvcurveto
          71 vlineto
          38 -12 22 -13 7 vhcurveto
          134 hlineto
          -501 -336 rmoveto
          -38 -10 -23 -60 -59 -11 0 callsubr
          39 vlineto
          38 11 23 1 callgsubr
          130 298 rmoveto
          -62 126 vlineto
          50 15 -25 -42 hvcurveto
          -63 vlineto
          -50 -20 -17 -60 -3 vhcurveto
          17 -14 -26 9 -41 hhcurveto
          -88 111 hlineto
          54 callgsubr
          -6 1 -34 165 callsubr
          -1 33 5 53 callgsubr
          -109 287 callgsubr
          -42 vlineto
          -33 callsubr
          101 83 vlineto
          17 14 -2 -7 9 hvcurveto
          -86 vlineto
          -12 1 -12 1 -11 vhcurveto
          -248 -271 rlineto
          91 hlineto
          96 104 28 29 31 40 24 32 rlinecurve
          -53 31 62 -19 73 hhcurveto
          63 36 15 21 19 hvcurveto
          -121 -21 callsubr
        </CharString>
        <CharString name="dvBH_VA">
          440 687 143 -99 callsubr
          -431 -244 63 callgsubr
          134 315 rmoveto
          -62 295 305 callsubr
          -89 -49 -40 -65 -11 hvcurveto
          -119 13 callsubr
          119 -135 157 callsubr
        </CharString>
        <CharString name="dvBH_YA">
          511 757 79 callsubr
          -501 230 callsubr
          101 61 callsubr
          130 304 57 callsubr
          -23 5 -28 172 callgsubr
          -115 -70 vlineto
          -99 -41 -41 -81 hvcurveto
          -104 37 callgsubr
        </CharString>
        <CharString name="dvB_BA">
          287 363 334 rmoveto
          174 -142 rlineto
          -50 vlineto
          -3 -12 -27 -8 -42 hhcurveto
          -69 -24 31 42 hvcurveto
          -249 128 rmoveto
          179 -140 rlineto
          -1 vlineto
          -39 -4 -25 -21 -60 hhcurveto
          -70 259 callgsubr
          423 47 rmoveto
          -172 140 rlineto
          31 8 26 20 57 hhcurveto
          41 28 -8 -5 12 hvcurveto
          163 223 rmoveto
          -726 -62 563 -98 hlineto
          162 callsubr
          -121 vlineto
          -177 139 -34 callgsubr
          59 39 15 27 24 vhcurveto
          -28 27 43 -14 58 hhcurveto
          43 30 290 callgsubr
          68 -61 callsubr
        </CharString>
        <CharString name="dvB_BHA">
          451 240 -5 callgsubr
          -266 -62 266 hlineto
          261 -404 62 callsubr
          -387 -5 117 callgsubr
          583 448 rmoveto
          -252 -124 127 101 callsubr
          -24 4 -27 188 callgsubr
          29 20 53 callgsubr
          -125 287 callgsubr
          -25 20 callsubr
          109 52 37 12 22 24 vhcurveto
          -28 22 37 -14 57 hhcurveto
          100 40 44 80 hvcurveto
          124 callsubr
          vlineto
          endchar
        </CharString>
        <CharString name="dvB_BH_RA">
          453 244 -5 callgsubr
          -269 -62 269 hlineto
          257 -336 100 callgsubr
          -387 -32 117 callgsubr
          585 448 rmoveto
          51 callsubr
          -99 -41 -43 -80 hvcurveto
          -51 20 callsubr
          109 81 44 29 50 17 vhcurveto
          -12 22 28 -6 37 hhcurveto
          99 41 44 80 hvcurveto
          111 128 -124 vlineto
          85 callsubr
          vlineto
          endchar
        </CharString>
        <CharString name="dvB_DA">
          268 114 332 rmoveto
          176 -138 1 -4 0 -5 1 -4 rlinecurve
          -32 -7 -26 -18 -55 hhcurveto
          -70 259 callgsubr
          470 231 190 callsubr
          -706 -62 538 177 callsubr
          -119 151 callsubr
          60 39 15 29 23 vhcurveto
          -26 27 40 -14 53 hhcurveto
          36 23 3 6 25 hvcurveto
          87 callgsubr
          -19 -3 -33 hhcurveto
          -64 -25 27 43 hvcurveto
          163 216 callgsubr
          endchar
        </CharString>
        <CharString name="dvB_DHA">
          337 114 332 117 callgsubr
          469 448 133 callgsubr
          -500 -62 333 hlineto
          0 -10 116 callsubr
          -12 20 callsubr
          109 60 40 16 28 23 vhcurveto
          -34 32 52 -16 64 hhcurveto
          49 33 6 8 28 hvcurveto
          -76 -21 callsubr
        </CharString>
        <CharString name="dvB_DH_VA">
          573 821 18 callsubr
          -707 -98 267 callgsubr
          449 448 -48 callgsubr
          -472 -62 331 154 callgsubr
          -26 -1 0 152 callsubr
          67 42 20 36 22 vhcurveto
          -29 33 50 -14 62 hhcurveto
          48 51 11 10 39 hvcurveto
          -22 25 37 -12 51 hhcurveto
          43 36 175 callsubr
          62 vlineto
          endchar
        </CharString>
        <CharString name="dvB_JA">
          479 114 357 152 callgsubr
          598 284 rmoveto
          -915 30 callsubr
          92 hlineto
          endchar
        </CharString>
        <CharString name="dvB_JHA">
          564 810 314 rmoveto
          -281 hlineto
          219 callgsubr
          158 150 121 hlineto
          -696 -264 117 callgsubr
          863 454 rmoveto
          -1003 -62 643 -85 -86 hlineto
          -100 206 callsubr
          -8 vlineto
          -23 4 -20 8 -17 vhcurveto
          -104 -67 hlineto
          -175 137 rlineto
          33 6 23 20 58 hhcurveto
          27 24 -5 0 hvcurveto
          63 vlineto
          0 -26 5 -29 -109 -46 -49 -86 vhcurveto
          -168 321 callsubr
          58 194 vlineto
          62 17 -26 -39 hvcurveto
          -40 vlineto
          -39 -21 -26 91 callgsubr
          103 46 41 86 hvcurveto
          43 vlineto
          31 -10 24 -18 13 vhcurveto
          140 -254 90 callsubr
        </CharString>
        <CharString name="dvB_J_YA">
          768 225 -5 callgsubr
          -112 -62 112 hlineto
          789 -427 rmoveto
          -5 -25 -37 -6 -44 hhcurveto
          -91 -40 37 75 hvcurveto
          81 vlineto
          80 1 47 36 82 vvcurveto
          59 220 callsubr
          -889 -62 534 hlineto
          0 8 -24 callgsubr
          -51 vlineto
          -47 -17 -18 -49 -5 vhcurveto
          67 -4 -46 25 -78 hhcurveto
          -217 -66 93 hlineto
          0 9 -23 -44 vvcurveto
          -159 vlineto
          -46 -25 -29 -64 -32 -59 13 9 -30 vhcurveto
          30 4 13 13 36 vvcurveto
          -32 -18 123 -38 vhcurveto
          -11 14 rlineto
          45 vlineto
          30 -53 55 -52 vhcurveto
          -23 3 -12 -5 -6 -8 rrcurveto
          -1 hlineto
          -68 -32 -2 -54 31 14 -121 44 hvcurveto
          4 -6 4 -5 4 -5 rrcurveto
          -45 vlineto
          -32 51 -52 54 vhcurveto
          24 -2 13 3 6 9 rrcurveto
          17 15 0 2 12 hvcurveto
          -17 -62 rlineto
          -9 29 70 -16 50 215 callgsubr
          163 -35 callgsubr
          33 hlineto
          59 25 -6 -46 hvcurveto
          -121 172 callsubr
          vlineto
          endchar
        </CharString>
        <CharString name="dvB_JxA">
          479 310 14 271 callsubr
          12 19 26 25 -11 20 -34 hvcurveto
          -196 343 152 callgsubr
          601 284 rmoveto
          -918 30 callsubr
          95 hlineto
          endchar
        </CharString>
        <CharString name="dvB_LA">
          480 114 332 247 callsubr
          778 448 rmoveto
          -918 -62 751 -122 hlineto
          -16 callgsubr
          -96 vlineto
          -177 139 -34 callgsubr
          43 33 8 15 23 vhcurveto
          -59 20 50 -32 90 -40 callgsubr
        </CharString>
        <CharString name="dvB_L_YA">
          772 1017 165 callgsubr
          -43 -67 callsubr
          -8 23 callsubr
          117 hlineto
          -903 -258 267 callgsubr
          1070 448 rmoveto
          -1210 -62 855 294 callgsubr
          58 -13 -41 36 -78 hhcurveto
          -50 -30 332 callgsubr
          -44 -51 -83 hvcurveto
          -94 152 callsubr
          42 32 8 14 23 vhcurveto
          -58 19 49 -32 90 8 48 1 5 hhcurveto
          65 vlineto
          -59 -1 rlineto
          285 callgsubr
          12 29 60 59 13 39 callsubr
          11 27 54 60 8 -27 -41 vhcurveto
          -88 vlineto
          -132 92 -41 108 46 39 -57 callsubr
          vlineto
          endchar
        </CharString>
        <CharString name="dvB_NA">
          430 487 187 -105 callsubr
          -373 -16 rmoveto
          171 -131 rlineto
          -43 -2 -22 -23 -61 hhcurveto
          -68 -18 28 45 hvcurveto
          171 50 rmoveto
          -170 131 rlineto
          33 6 22 20 57 hhcurveto
          66 19 -25 -48 hvcurveto
          558 287 rmoveto
          -869 -62 702 310 callgsubr
          -42 -32 -9 -17 -22 hvcurveto
          30 -23 -39 17 -64 hhcurveto
          -109 -46 -48 -86 hvcurveto
          -165 vlineto
          -86 46 -48 109 52 36 12 20 24 vhcurveto
          -26 22 36 -14 52 hhcurveto
          93 43 43 83 hvcurveto
          -76 callsubr
        </CharString>
        <CharString name="dvB_R">
          -157 118 333 rmoveto
          176 -127 rlineto
          -41 -3 -24 -22 -61 hhcurveto
          -69 -19 28 45 hvcurveto
          176 47 rmoveto
          -174 127 rlineto
          33 6 23 19 57 hhcurveto
          66 22 -25 -48 hvcurveto
          -246 -154 rmoveto
          -82 43 -48 106 -3 vhcurveto
          -160 -152 rlineto
          95 hlineto
          150 145 rlineto
          52 49 28 26 65 vvcurveto
          156 vlineto
          87 -47 47 -109 -112 266 callgsubr
          -74 281 rmoveto
          -62 408 62 vlineto
          endchar
        </CharString>
        <CharString name="dvB_RA">
          42 118 128 callsubr
          -318 223 rmoveto
          -62 318 -98 vlineto
          162 callsubr
          -149 194 callsubr
          62 vlineto
          endchar
        </CharString>
        <CharString name="dvB_SA">
          452 698 350 rmoveto
          -126 hlineto
          -88 callgsubr
          130 hlineto
          -584 -258 rmoveto
          177 -138 rlineto
          -16 vlineto
          -30 -8 -26 -17 -53 hhcurveto
          -70 259 callgsubr
          751 448 rmoveto
          -891 -62 521 hlineto
          -95 callsubr
          126 -72 -197 vlineto
          -175 137 rlineto
          32 6 23 20 58 hhcurveto
          16 15 -2 0 hvcurveto
          63 vlineto
          0 -17 2 -18 -109 266 callgsubr
          -169 vlineto
          -86 49 -48 110 41 32 7 14 24 vhcurveto
          -62 21 59 -32 86 hhcurveto
          -20 callsubr
          hvcurveto
          7 callsubr
        </CharString>
        <CharString name="dvB_SHA">
          447 239 -5 callgsubr
          -265 -62 265 hlineto
          -125 -258 247 callsubr
          255 279 rmoveto
          -1 4 -2 16 18 vvcurveto
          38 16 31 63 63 16 -30 -38 vhcurveto
          -137 vlineto
          -39 -16 -29 -63 -31 -29 6 7 -19 vhcurveto
          74 -73 -153 vlineto
          -177 139 -34 callgsubr
          43 33 8 15 24 vhcurveto
          -59 23 60 -35 83 hhcurveto
          54 36 8 10 32 hvcurveto
          -74 callsubr
          140 vlineto
          83 -48 51 -103 -103 -49 -51 -83 -17 3 -19 1 -4 vhcurveto
          396 169 rmoveto
          -652 -21 callsubr
        </CharString>
        <CharString name="dvB_TA">
          293 114 332 rmoveto
          179 -140 rlineto
          -40 -4 -24 -21 -61 hhcurveto
          -70 259 callgsubr
          592 448 rmoveto
          -732 -62 565 -100 hlineto
          250 callsubr
          -116 vlineto
          -178 140 -34 callgsubr
          40 31 7 13 23 vhcurveto
          -56 12 39 -33 78 hhcurveto
          -64 callgsubr
          vlineto
          endchar
        </CharString>
        <CharString name="dvB_VA">
          286 533 143 -99 callsubr
          -419 -98 rmoveto
          177 -138 rlineto
          -41 -4 -24 -22 -59 hhcurveto
          -70 259 callgsubr
          584 448 rmoveto
          -724 -62 557 -97 hlineto
          4 -10 176 callgsubr
          -118 20 callsubr
          110 57 39 15 26 23 vhcurveto
          -27 25 39 -14 56 109 callgsubr
        </CharString>
        <CharString name="dvB_YA">
          354 599 -103 callsubr
          -485 -258 rmoveto
          179 -140 rlineto
          -40 -4 -24 -21 -61 hhcurveto
          -70 259 callgsubr
          652 448 rmoveto
          -792 -62 437 83 callgsubr
          -5 151 callsubr
          72 44 22 40 21 vhcurveto
          -33 37 55 -12 59 -42 callgsubr
        </CharString>
        <CharString name="dvC">
          299 callgsubr
          11 -449 rmoveto
          -9 -27 -40 -6 -30 hhcurveto
          -62 -24 24 48 hvcurveto
          138 vlineto
          12 callsubr
          -140 vlineto
          -86 47 -49 103 35 46 7 8 24 vhcurveto
          endchar
        </CharString>
        <CharString name="dvCA">
          78 159 336 rmoveto
          12 callsubr
          -140 vlineto
          -86 46 -49 103 35 29 5 8 23 vhcurveto
          -74 238 callsubr
          -516 -62 349 -451 vlineto
          282 callsubr
          48 hvcurveto
          endchar
        </CharString>
        <CharString name="dvCH">
          124 324 495 rmoveto
          -35 1 -31 -10 0 vvcurveto
          -64 vlineto
          0 24 10 30 62 14 -26 -45 vhcurveto
          -190 169 callgsubr
          331 62 -562 136 callsubr
          199 vlineto
          74 -38 53 -97 vhcurveto
          endchar
        </CharString>
        <CharString name="dvCHA">
          124 62 389 rmoveto
          155 callsubr
          151 62 -563 -62 98 vlineto
          0 -10 -23 -44 vvcurveto
          72 hmoveto
          43 11 -17 callsubr
          -190 vlineto
          -65 -23 -22 -105 -106 -23 19 64 vhcurveto
          28 vlineto
          43 19 273 callsubr
          -56 132 callgsubr
          endchar
        </CharString>
        <CharString name="dvCH_R">
          124 228 -151 68 callgsubr
          92 322 -22 callgsubr
        </CharString>
        <CharString name="dvCH_RA">
          124 386 171 -22 callgsubr
        </CharString>
        <CharString name="dvCH_R_YA">
          623 871 107 callgsubr
          34 81 hvcurveto
          16 vlineto
          83 -42 41 -96 vhcurveto
          -237 94 485 hlineto
          -485 -419 -70 callsubr
          652 291 rmoveto
          -1064 -62 98 hlineto
          133 callsubr
          -86 39 -44 94 -13 338 callsubr
          70 141 rlineto
          4 hlineto
          71 -141 256 callsubr
          91 14 35 44 88 vvcurveto
          199 vlineto
          24 -3 21 -7 17 vhcurveto
          177 324 callgsubr
          -9 vlineto
          -50 -22 -12 -69 vhcurveto
          -37 -56 hlineto
          -131 84 -42 108 43 43 6 6 31 vhcurveto
          -80 -64 callsubr
        </CharString>
        <CharString name="dvCH_YA">
          608 854 147 rmoveto
          -7 -33 219 callsubr
          35 81 hvcurveto
          13 vlineto
          83 -43 41 -96 vhcurveto
          -193 hlineto
          15 -21 -29 8 -38 hhcurveto
          -35 -31 -10 0 hvcurveto
          -64 vlineto
          0 24 11 30 62 14 -26 -46 vhcurveto
          -211 169 callgsubr
          649 hlineto
          166 62 rmoveto
          -1046 136 callsubr
          220 vlineto
          14 -1 13 -3 12 vhcurveto
          152 324 callgsubr
          -7 190 callgsubr
          43 6 6 32 vhcurveto
          -80 72 590 94 vlineto
          endchar
        </CharString>
        <CharString name="dvC_CA">
          324 737 -5 callgsubr
          -763 -62 596 226 callsubr
          101 62 -221 -62 46 hlineto
          0 -9 -30 -54 vvcurveto
          -140 vlineto
          -22 3 -20 6 -17 vhcurveto
          -6 -26 -30 -5 -35 hhcurveto
          -63 -29 21 51 hvcurveto
          138 vlineto
          257 callsubr
          70 62 -227 -64 84 189 callgsubr
          -140 vlineto
          -86 56 -49 103 53 55 13 11 29 vhcurveto
          -16 24 33 -8 43 hhcurveto
          34 29 5 8 24 hvcurveto
          -74 -64 callsubr
        </CharString>
        <CharString name="dvC_CHA">
          405 667 75 callsubr
          -844 -62 379 vlineto
          133 callsubr
          -9 0 -9 1 -8 vhcurveto
          -7 -25 -31 -6 -34 hhcurveto
          -63 -26 24 48 hvcurveto
          138 vlineto
          12 callsubr
          -140 vlineto
          -86 53 -49 104 44 43 9 9 27 vhcurveto
          -43 28 57 -18 96 hhcurveto
          146 53 43 108 hvcurveto
          303 callgsubr
        </CharString>
        <CharString name="dvC_CH_VA">
          406 616 -141 rmoveto
          -8 -28 -26 -3 -35 hhcurveto
          -67 -23 26 42 hvcurveto
          34 vlineto
          42 21 26 66 vhcurveto
          0 15 vlineto
          29 26 2 3 22 hvcurveto
          -206 172 rmoveto
          43 19 273 callsubr
          -55 132 callgsubr
          133 vlineto
          43 10 -17 callsubr
          -190 vlineto
          -65 -23 -22 -105 -105 -24 19 64 vhcurveto
          408 423 rmoveto
          62 -844 -62 380 vlineto
          0 -11 -23 -44 vvcurveto
          -134 vlineto
          -46 11 -34 42 -16 vhcurveto
          -43 -14 -15 291 callgsubr
          -9 0 -9 1 -8 vhcurveto
          -7 -25 -32 -6 -34 hhcurveto
          -63 -26 24 48 hvcurveto
          138 vlineto
          12 callsubr
          -140 vlineto
          -86 53 -49 104 45 43 9 9 27 vhcurveto
          11 -18 17 -13 23 -10 rrcurveto
          -26 -19 -16 -28 -41 vvcurveto
          -36 vlineto
          -86 55 -42 100 37 30 4 7 25 vhcurveto
          -59 72 311 vlineto
          36 24 15 39 57 vvcurveto
          199 vlineto
          62 -19 41 -52 14 vhcurveto
          105 vlineto
          endchar
        </CharString>
        <CharString name="dvC_MA">
          483 729 432 -8 callgsubr
          359 283 rmoveto
          -921 -62 562 320 callgsubr
          -17 2 -16 4 -14 vhcurveto
          -6 -25 -29 -5 -30 hhcurveto
          -63 -26 24 48 hvcurveto
          138 vlineto
          12 callsubr
          -140 vlineto
          -86 53 -49 104 49 52 13 9 26 vhcurveto
          -15 23 31 -7 41 hhcurveto
          100 40 96 callgsubr
        </CharString>
        <CharString name="dvC_NA">
          471 529 187 -105 callsubr
          356 308 rmoveto
          -918 -62 751 -110 177 callgsubr
          -169 vlineto
          -18 2 -16 4 -14 vhcurveto
          -7 -27 -33 -5 -32 hhcurveto
          -63 -26 24 48 hvcurveto
          138 vlineto
          12 callsubr
          -140 vlineto
          -86 53 -49 103 53 49 12 12 31 vhcurveto
          -17 22 32 -8 40 hhcurveto
          93 43 43 83 hvcurveto
          -76 callsubr
        </CharString>
        <CharString name="dvC_R">
          299 callgsubr
          -172 -254 rmoveto
          12 callsubr
          -131 vlineto
          -87 47 -49 111 vhcurveto
          15 hlineto
          -148 -129 rlineto
          92 hlineto
          152 138 rlineto
          69 vlineto
          -7 -27 -32 -5 -42 hhcurveto
          -71 -25 24 47 hvcurveto
          endchar
        </CharString>
        <CharString name="dvC_RA">
          79 -26 -5 callgsubr
          -62 350 -412 vlineto
          282 callsubr
          47 hvcurveto
          100 vlineto
          339 callgsubr
          -256 -64 81 189 callgsubr
          -97 vlineto
          -81 39 -49 91 -5 vhcurveto
          -144 -149 rlineto
          90 hlineto
          155 160 5 1 rlineto
          -116 -21 callsubr
        </CharString>
        <CharString name="dvC_YA">
          395 641 -103 callsubr
          167 62 rmoveto
          -834 -62 479 83 callgsubr
          -42 9 -32 16 -25 vhcurveto
          -10 -31 -38 -9 -39 hhcurveto
          -63 -27 25 47 hvcurveto
          124 vlineto
          12 callsubr
          -126 vlineto
          -86 54 -49 107 74 56 23 14 29 vhcurveto
          -19 35 44 -8 47 -42 callgsubr
        </CharString>
        <CharString name="dvCandrabindu">
          -387 -149 884 rmoveto
          -25 11 -18 33 33 10 18 25 25 -10 19 -33 -33 -11 -19 -25 vhcurveto
          139 -40 23 callgsubr
        </CharString>
        <CharString name="dvD">
          19 462 27 callsubr
          -342 417 rmoveto
          -73 callsubr
          142 333 callgsubr
          hlineto
          -103 -49 -41 -88 hvcurveto
          endchar
        </CharString>
        <CharString name="dvDA">
          19 42 207 rmoveto
          -73 callsubr
          142 333 callgsubr
          hlineto
          -103 -49 -41 -88 hvcurveto
          endchar
        </CharString>
        <CharString name="dvDA_mvR">
          19 336 435 rmoveto
          333 callgsubr
          vlineto
          -103 -49 -41 -88 hvcurveto
          -106 vlineto
          -86 55 -49 100 33 26 3 6 25 vhcurveto
          -53 -11 vlineto
          -89 -52 -39 -98 -99 60 -39 89 29 18 2 4 29 hvcurveto
          69 vlineto
          -4 -25 -24 -2 -26 hhcurveto
          -42 -39 6 63 63 35 5 43 20 28 -2 -4 27 hvcurveto
          280 -70 -87 vlineto
          -5 -23 -21 -4 -35 hhcurveto
          -63 -25 28 43 hvcurveto
          104 216 callgsubr
          endchar
        </CharString>
        <CharString name="dvDD">
          27 351 27 callsubr
          95 370 -39 callsubr
        </CharString>
        <CharString name="dvDDA">
          26 368 160 -39 callsubr
        </CharString>
        <CharString name="dvDDH">
          23 355 27 callsubr
          -74 713 rmoveto
          262 callsubr
          -88 48 -52 109 108 48 50 88 vhcurveto
          -53 callgsubr
          131 186 callgsubr
          hlineto
          endchar
        </CharString>
        <CharString name="dvDDHA">
          23 203 503 rmoveto
          262 callsubr
          -88 48 -52 109 108 48 50 88 vhcurveto
          -53 callgsubr
          131 186 callgsubr
          hlineto
          endchar
        </CharString>
        <CharString name="dvDDH_DDHA">
          34 337 439 rmoveto
          151 109 62 -472 294 callsubr
          -47 15 -35 30 -24 vhcurveto
          -31 -21 -15 -33 -46 vvcurveto
          -149 vlineto
          -87 52 -50 108 109 50 49 86 vhcurveto
          14 vlineto
          82 -50 39 -71 -29 -21 -8 0 vhcurveto
          -60 vlineto
          0 14 8 27 36 24 -16 -46 vhcurveto
          -11 vlineto
          -42 -17 -31 -72 -72 -16 32 42 vhcurveto
          147 vlineto
          44 17 26 66 vhcurveto
          6 hlineto
          109 50 49 86 hvcurveto
          275 callsubr
          26 37 24 -17 -46 vhcurveto
          -12 243 callsubr
        </CharString>
        <CharString name="dvDDH_R">
          23 185 -159 68 callgsubr
          83 595 rmoveto
          186 callgsubr
          -60 vlineto
          262 callsubr
          -66 27 -46 60 -19 vhcurveto
          -77 -144 268 callgsubr
          -77 145 103 callgsubr
        </CharString>
        <CharString name="dvDDH_RA">
          23 334 436 rmoveto
          186 callgsubr
          -60 vlineto
          262 callsubr
          -66 27 -46 59 -18 vhcurveto
          -76 239 callgsubr
          144 103 callgsubr
        </CharString>
        <CharString name="dvDDH_VA">
          41 280 -78 rmoveto
          333 callsubr
          38 vlineto
          45 18 23 67 vhcurveto
          0 3 vlineto
          25 21 2 5 19 hvcurveto
          57 352 rmoveto
          151 116 62 -479 294 callsubr
          -48 16 -36 32 -22 vhcurveto
          -29 -19 -17 -31 -43 277 callsubr
          324 vlineto
          18 21 8 29 35 vvcurveto
          275 callsubr
          27 36 24 -18 -44 vhcurveto
          -13 243 callsubr
        </CharString>
        <CharString name="dvDDH_YA">
          508 754 147 rmoveto
          -7 -33 219 callsubr
          35 81 hvcurveto
          21 vlineto
          83 -43 42 -96 vhcurveto
          -171 87 420 hlineto
          166 62 rmoveto
          -946 -62 289 -87 -60 hlineto
          262 callsubr
          -88 48 -52 109 108 48 50 88 vhcurveto
          -53 callgsubr
          304 hlineto
          55 11 -23 -39 hvcurveto
          -15 190 callgsubr
          43 6 6 32 vhcurveto
          -80 72 590 94 vlineto
          endchar
        </CharString>
        <CharString name="dvDDHxA">
          23 203 503 rmoveto
          262 callsubr
          -88 48 297 callgsubr
          -72 -29 -20 -8 0 vhcurveto
          -65 vlineto
          0 14 8 27 35 24 -17 -45 vhcurveto
          -40 vlineto
          -43 -17 -31 -69 -69 -17 31 43 vhcurveto
          236 237 callgsubr
          131 186 callgsubr
          hlineto
          -99 -633 rmoveto
          -80 callsubr
          113 callsubr
          vhcurveto
          endchar
        </CharString>
        <CharString name="dvDD_DDA">
          241 callgsubr
          -34 -77 hvcurveto
          -6 vlineto
          -85 52 -27 93 226 callgsubr
          13 -3 14 -2 15 -3 rrcurveto
          -13 -18 -7 -23 -27 vvcurveto
          -85 57 -27 84 vhcurveto
          34 hlineto
          55 17 -17 -37 hvcurveto
          -15 vlineto
          -46 -22 -16 -76 -45 -63 8 11 -48 vhcurveto
          -63 vlineto
          -10 45 56 -9 55 hhcurveto
          118 54 35 89 hvcurveto
          15 vlineto
          84 -49 32 -97 vhcurveto
          -37 hlineto
          -54 -16 16 37 41 17 15 53 hvcurveto
          0 9 vlineto
          118 54 35 89 hvcurveto
          283 callgsubr
          -53 -17 15 37 hvcurveto
          4 vlineto
          38 17 15 53 vhcurveto
          endchar
        </CharString>
        <CharString name="dvDD_DDHA">
          241 callgsubr
          -33 -81 hvcurveto
          -4 vlineto
          -84 53 -27 92 226 callgsubr
          14 -3 16 -3 16 -2 rrcurveto
          -20 -22 -11 -29 -36 vvcurveto
          -141 vlineto
          -86 52 -51 108 109 50 49 87 vhcurveto
          13 vlineto
          83 -50 38 -71 -29 -21 -8 0 vhcurveto
          -59 vlineto
          0 14 8 27 36 24 -18 -44 vhcurveto
          -11 vlineto
          -42 -17 -32 -72 -72 -16 32 42 vhcurveto
          147 vlineto
          43 16 26 61 1 vhcurveto
          0 5 vlineto
          117 55 34 90 hvcurveto
          283 callgsubr
          -54 -16 15 38 40 17 16 53 hvcurveto
          endchar
        </CharString>
        <CharString name="dvDD_R">
          25 175 -159 68 callgsubr
          96 599 94 callsubr
          -73 -138 rcurveline
          76 hlineto
          67 135 rlineto
          10 hlineto
          68 -135 256 callsubr
          59 19 30 41 63 vvcurveto
          129 callgsubr
        </CharString>
        <CharString name="dvDD_RA">
          27 339 440 94 callsubr
          -72 -135 rcurveline
          76 hlineto
          65 132 14 1 66 -133 rlineto
          76 hlineto
          -77 144 rlineto
          58 19 29 41 62 vvcurveto
          129 callgsubr
        </CharString>
        <CharString name="dvDD_VA">
          40 130 12 rmoveto
          45 18 23 67 vhcurveto
          0 vlineto
          26 22 2 5 20 hvcurveto
          -165 vlineto
          333 callsubr
          221 470 rmoveto
          146 101 62 -478 -62 303 -87 -77 vlineto
          -98 -48 -34 -77 hvcurveto
          -6 vlineto
          -85 52 -27 92 vhcurveto
          36 hlineto
          56 16 -17 -38 1 hvcurveto
          -14 vlineto
          -48 -26 -14 -73 -44 -74 7 11 -52 vhcurveto
          -63 vlineto
          15 -3 16 -3 17 -2 rrcurveto
          -17 -19 -9 -25 -32 277 callsubr
          317 vlineto
          20 20 9 28 37 vvcurveto
          283 callgsubr
          -53 -17 15 37 hvcurveto
          4 vlineto
          37 17 16 53 vhcurveto
          endchar
        </CharString>
        <CharString name="dvDD_YA">
          509 755 107 callgsubr
          35 81 hvcurveto
          25 vlineto
          83 -42 40 -96 vhcurveto
          -168 85 416 hlineto
          155 callgsubr
          -948 21 callsubr
          33 vlineto
          -36 callgsubr
          310 hlineto
          55 11 -23 -39 hvcurveto
          -19 vlineto
          -49 -22 -12 -69 vhcurveto
          -37 -57 hlineto
          -131 84 -42 108 43 43 6 6 31 vhcurveto
          -80 -64 callsubr
        </CharString>
        <CharString name="dvDDxA">
          27 164 -130 rmoveto
          141 callgsubr
          113 callsubr
          vhcurveto
          204 290 -39 callsubr
        </CharString>
        <CharString name="dvDH">
          -94 372 146 rmoveto
          -8 -28 -53 -10 -43 hhcurveto
          -72 -44 21 65 hvcurveto
          50 -28 callgsubr
          -56 vlineto
          -99 74 -48 108 47 51 9 9 32 vhcurveto
          endchar
        </CharString>
        <CharString name="dvDHA">
          107 76 590 rmoveto
          146 callgsubr
          -167 2 callgsubr
          -269 -62 hlineto
          endchar
        </CharString>
        <CharString name="dvDH_MA">
          503 750 432 rmoveto
          -123 158 123 hlineto
          -193 -404 242 callgsubr
          -225 283 rmoveto
          -62 225 -158 287 callgsubr
          -126 vlineto
          -15 1 -13 3 -13 vhcurveto
          -7 -30 -36 -6 -36 hhcurveto
          -73 -44 21 65 hvcurveto
          48 -28 callgsubr
          -54 322 callsubr
          56 50 13 10 34 vhcurveto
          -17 22 33 -9 45 hhcurveto
          99 41 124 callgsubr
          62 vlineto
          endchar
        </CharString>
        <CharString name="dvDH_NA">
          490 547 187 -105 callsubr
          -232 308 rmoveto
          -62 420 -110 -254 vlineto
          -39 callgsubr
          -169 vlineto
          -16 2 -15 3 -14 vhcurveto
          -7 -30 -36 -6 -35 hhcurveto
          -73 -44 21 65 hvcurveto
          50 -28 callgsubr
          -56 322 callsubr
          54 51 13 10 35 vhcurveto
          -17 22 31 -8 41 hhcurveto
          93 43 43 83 hvcurveto
          159 vlineto
          42 -11 26 2 vvcurveto
          129 -415 277 callgsubr
        </CharString>
        <CharString name="dvDH_N_YA">
          799 1044 -103 callsubr
          -495 223 callgsubr
          -52 -14 0 callsubr
          160 vlineto
          38 14 23 52 142 callsubr
          662 315 rmoveto
          -870 -62 515 hlineto
          0 7 254 callgsubr
          61 -12 -52 25 -80 hhcurveto
          -170 hlineto
          -39 callgsubr
          -162 vlineto
          -17 2 -15 3 -13 vhcurveto
          -8 -31 -36 -5 -36 hhcurveto
          -73 -44 21 65 hvcurveto
          50 -28 callgsubr
          -56 322 callsubr
          55 53 12 10 35 vhcurveto
          -16 22 31 -8 40 hhcurveto
          92 44 43 83 hvcurveto
          152 vlineto
          42 -11 26 2 vvcurveto
          44 hlineto
          44 33 -10 -30 6 hvcurveto
          -110 -68 callsubr
        </CharString>
        <CharString name="dvDH_R">
          -94 132 269 rmoveto
          24 callgsubr
          58 92 callgsubr
          73 62 -246 179 callgsubr
          -60 vlineto
          -45 125 callgsubr
          -38 vlineto
          -102 70 -47 115 8 9 0 1 8 203 callgsubr
          endchar
        </CharString>
        <CharString name="dvDH_RA">
          108 353 -5 callgsubr
          -491 vlineto
          251 callgsubr
          27 vlineto
          138 callsubr
          96 62 -270 -62 101 288 callsubr
          -65 vlineto
          -45 11 -35 41 -17 vhcurveto
          146 callsubr
        </CharString>
        <CharString name="dvDH_VA">
          342 590 18 callsubr
          -258 222 -48 callgsubr
          -241 -62 100 hlineto
          0 -8 -23 -44 vvcurveto
          -50 vlineto
          -45 11 -35 41 -17 vhcurveto
          44 callsubr
        </CharString>
        <CharString name="dvDH_YA">
          410 655 165 callgsubr
          -43 -67 callsubr
          -8 23 callsubr
          117 hlineto
          -323 62 -10 callsubr
          -241 -62 100 hlineto
          0 -8 -23 -44 vvcurveto
          -50 vlineto
          -45 11 -35 41 -17 vhcurveto
          43 callsubr
        </CharString>
        <CharString name="dvD_BA">
          39 297 21 rmoveto
          -4 0 -4 -4 vvcurveto
          -150 115 rlineto
          9 13 19 4 25 hhcurveto
          27 48 5 6 18 hvcurveto
          -176 -83 rmoveto
          7 1 7 1 6 vhcurveto
          155 -120 rlineto
          -13 -13 -22 -7 -34 hhcurveto
          -72 -16 32 44 hvcurveto
          231 414 rmoveto
          155 99 62 -477 330 callsubr
          -113 vlineto
          -45 16 -33 31 -20 vhcurveto
          -29 -19 -17 -32 -47 vvcurveto
          -45 vlineto
          -86 48 -50 110 111 46 51 87 1 vhcurveto
          307 -70 -122 vlineto
          -4 -21 -38 -5 -28 hhcurveto
          -67 -21 27 40 hvcurveto
          105 vlineto
          41 18 26 66 vhcurveto
          endchar
        </CharString>
        <CharString name="dvD_BHA">
          123 128 -85 rmoveto
          -12 17 -4 21 30 22 40 28 rcurveline
          36 -49 11 -17 4 -21 -30 -22 rlinecurve
          -33 -23 -18 11 -12 16 rrcurveto
          298 537 344 callsubr
          -562 -62 392 177 callsubr
          -101 vlineto
          -81 49 -48 91 -5 vhcurveto
          -85 -61 -46 64 -33 46 -47 6 -54 -40 rlinecurve
          -54 -38 -10 -47 33 -46 16 -22 rcurveline
          46 33 -16 22 -11 16 -3 18 30 22 rlinecurve
          29 21 16 -8 12 -16 46 -63 rcurveline
          -39 -29 -56 -41 -8 -48 32 -42 rlinecurve
          14 -19 31 -45 48 -9 57 41 rlinecurve
          56 41 6 48 -31 45 -36 50 rcurveline
          154 109 2 1 rlineto
          -103 70 264 -70 -96 vlineto
          -6 265 callsubr
          -26 27 44 hvcurveto
          98 216 callgsubr
          endchar
        </CharString>
        <CharString name="dvD_B_RA">
          37 298 95 rmoveto
          -6 0 -5 -1 -6 vhcurveto
          -147 100 rlineto
          7 12 18 4 24 hhcurveto
          31 44 6 8 19 hvcurveto
          -177 -87 rmoveto
          8 1 8 1 7 vhcurveto
          154 -102 -3 -4 -5 -3 -5 -2 rlinecurve
          -10 hlineto
          -6 -6 rlineto
          -3 -11 -13 -1 -15 hhcurveto
          -72 -16 32 45 hvcurveto
          231 340 344 callsubr
          -476 330 callsubr
          -61 vlineto
          -46 16 -32 32 -20 vhcurveto
          -29 -20 -17 -32 -47 vvcurveto
          -22 vlineto
          -82 42 -44 93 -5 vhcurveto
          -107 -106 rlineto
          90 hlineto
          122 123 6 3 rlineto
          -75 69 428 -69 -73 vlineto
          -6 -18 -32 -7 -38 hhcurveto
          -67 -21 26 41 hvcurveto
          53 vlineto
          41 18 26 66 vhcurveto
          endchar
        </CharString>
        <CharString name="dvD_DA">
          26 343 445 rmoveto
          145 95 62 -464 -62 297 -85 -76 vlineto
          -100 -46 -41 -82 hvcurveto
          -12 vlineto
          -45 15 -30 30 -19 vhcurveto
          -30 -20 -15 -30 -45 vvcurveto
          -53 vlineto
          -80 54 -45 100 38 25 5 6 22 vhcurveto
          -81 70 228 -70 -85 vlineto
          -5 -18 -27 -6 -34 hhcurveto
          -64 -24 25 39 hvcurveto
          51 216 callgsubr
          93 63 -93 hlineto
          -64 -16 25 39 hvcurveto
          10 216 callgsubr
          endchar
        </CharString>
        <CharString name="dvD_DHA">
          173 492 435 rmoveto
          155 94 62 -612 -62 446 304 callsubr
          -165 vlineto
          268 callsubr
          9 vlineto
          228 callsubr
          16 58 -16 hlineto
          56 callgsubr
        </CharString>
        <CharString name="dvD_GA">
          30 345 435 344 callsubr
          -469 -62 299 177 callsubr
          -136 vlineto
          -62 29 -43 54 -19 vhcurveto
          -69 vlineto
          -39 -5 -26 -56 -13 -16 3 0 vhcurveto
          -63 vlineto
          0 15 -4 22 93 28 43 82 vhcurveto
          62 4 vlineto
          33 25 3 7 26 hvcurveto
          -271 70 445 -70 -110 vlineto
          -5 -23 -20 -4 -35 hhcurveto
          -64 -25 28 43 hvcurveto
          134 216 callgsubr
          endchar
        </CharString>
        <CharString name="dvD_GHA">
          175 75 62 rmoveto
          228 callsubr
          63 -87 hlineto
          268 callsubr
          417 382 rmoveto
          155 95 62 -613 -62 446 304 callsubr
          -20 -63 vlineto
          56 callgsubr
        </CharString>
        <CharString name="dvD_G_RA">
          29 344 435 190 callsubr
          -466 -62 297 -89 -69 vlineto
          -103 -49 -41 -88 hvcurveto
          -94 vlineto
          -61 27 -43 52 -19 vhcurveto
          -51 vlineto
          -39 -5 -26 -56 -13 -16 3 0 vhcurveto
          -63 vlineto
          0 14 -4 23 93 28 43 82 vhcurveto
          43 7 vlineto
          33 25 3 7 26 hvcurveto
          -114 vlineto
          -206 -222 rlineto
          83 hlineto
          31 32 63 66 29 37 5 11 rlinecurve
          1 -1 rlineto
          -2 -5 -1 -30 -25 vvcurveto
          -45 67 470 -70 -110 vlineto
          -5 -23 -20 -4 -35 hhcurveto
          -63 -25 28 43 hvcurveto
          92 216 callgsubr
          endchar
        </CharString>
        <CharString name="dvD_MA">
          248 494 122 rmoveto
          -139 199 -69 -87 hlineto
          -3 -11 -32 -8 -41 hhcurveto
          -66 -22 26 39 hvcurveto
          82 vlineto
          39 16 26 67 vhcurveto
          145 155 152 hlineto
          155 callgsubr
          -687 -62 295 -89 -72 hlineto
          -106 -49 -42 -88 hvcurveto
          -83 vlineto
          -83 53 -47 102 36 35 7 6 18 vhcurveto
          -162 69 51 139 -110 72 640 95 vlineto
          endchar
        </CharString>
        <CharString name="dvD_NA">
          20 336 435 rmoveto
          333 callgsubr
          vlineto
          -103 -49 -41 -88 hvcurveto
          -148 vlineto
          -79 46 -42 85 -7 vhcurveto
          -75 -53 -68 -51 -4 -53 34 -40 rlinecurve
          23 -27 41 -3 0 vvcurveto
          48 40 rlineto
          0 -33 7 -15 17 vhcurveto
          -19 23 5 22 34 26 137 100 rcurveline
          -111 70 271 -70 -100 vlineto
          -6 -26 -19 -3 -33 hhcurveto
          -64 -25 27 44 hvcurveto
          145 216 callgsubr
          endchar
        </CharString>
        <CharString name="dvD_R">
          20 351 -7 rmoveto
          249 -70 -64 vlineto
          -13 -22 -17 -5 -39 hhcurveto
          -63 -25 27 43 hvcurveto
          141 216 callgsubr
          142 155 96 62 -460 -62 292 -89 -70 hlineto
          -103 -49 -41 -88 hvcurveto
          -143 vlineto
          -82 49 -43 92 -4 vhcurveto
          -142 -168 rlineto
          85 hlineto
          150 178 4 1 rlineto
          -118 vlineto
          75 -56 rmoveto
          -66 hlineto
          215 callsubr
          endchar
        </CharString>
        <CharString name="dvD_RA">
          20 338 435 190 callsubr
          -460 -62 292 177 callsubr
          -141 24 callsubr
        </CharString>
        <CharString name="dvD_VA">
          28 288 194 callgsubr
          55 287 344 callsubr
          -467 -62 297 304 callsubr
          95 callsubr
        </CharString>
        <CharString name="dvD_YA">
          96 509 -5 callgsubr
          -535 -62 182 -73 hlineto
          -58 -2 -46 -25 -75 vvcurveto
          -27 vlineto
          -43 12 -35 42 -17 vhcurveto
          -42 -15 -15 -38 -42 vvcurveto
          -17 vlineto
          -99 64 -39 111 47 42 7 7 31 vhcurveto
          -57 70 -59 callgsubr
          vlineto
          -167 hmoveto
          -468 vlineto
          -7 -26 -43 -7 -42 hhcurveto
          -73 -37 13 66 hvcurveto
          11 vlineto
          39 19 27 63 vhcurveto
          31 61 -34 hlineto
          -63 1 -13 25 39 vvcurveto
          21 vlineto
          46 26 11 48 vhcurveto
          30 122 hlineto
          endchar
        </CharString>
        <CharString name="dvE">
          41 356 81 rmoveto
          -9 -28 -44 -10 -49 hhcurveto
          -74 -24 28 48 hvcurveto
          452 156 callgsubr
          -452 vlineto
          -97 56 -46 112 53 45 10 10 25 vhcurveto
          endchar
        </CharString>
        <CharString name="dvEcandra">
          41 315 852 rmoveto
          -50 -27 -15 -68 296 callsubr
          33 93 vhcurveto
          2 vlineto
          -33 -771 rmoveto
          -9 -27 -45 -10 -50 hhcurveto
          -68 -25 28 44 hvcurveto
          456 156 callgsubr
          -457 vlineto
          329 callgsubr
          endchar
        </CharString>
        <CharString name="dvEight">
          9 callgsubr
        </CharString>
        <CharString name="dvEyelash">
          -138 -26 590 rmoveto
          395 62 -395 hlineto
          395 -321 rmoveto
          -174 hlineto
          -68 -37 -2 53 hvcurveto
          -70 -5 hlineto
          -93 68 -16 107 vhcurveto
          174 hlineto
          endchar
        </CharString>
        <CharString name="dvEyelash_HA">
          240 556 340 callgsubr
          -679 -62 510 -85 -84 vlineto
          -100 -46 -38 -81 hvcurveto
          -9 -64 vlineto
          -68 -37 5 52 hvcurveto
          -70 -5 hlineto
          -92 68 -23 107 vhcurveto
          77 hlineto
          9 -15 12 -11 17 -8 rrcurveto
          -35 -17 -18 -31 -46 vvcurveto
          -54 vlineto
          -85 53 -53 120 49 50 5 8 42 vhcurveto
          63 vlineto
          -8 -48 -39 -3 -51 hhcurveto
          -81 -22 32 44 hvcurveto
          52 vlineto
          39 19 24 63 vhcurveto
          41 hlineto
          57 8 -22 -40 hvcurveto
          -26 67 30 vlineto
          80 -36 41 -91 vhcurveto
          -50 hlineto
          -60 292 callgsubr
          11 vlineto
          37 15 22 59 vhcurveto
          endchar
        </CharString>
        <CharString name="dvEyelash_YA">
          304 550 270 callgsubr
          -40 36 75 hvcurveto
          48 vlineto
          80 1 48 35 82 vvcurveto
          94 142 callgsubr
          -576 62 rmoveto
          -62 387 236 callgsubr
          -85 vlineto
          -58 -26 -14 -81 vhcurveto
          -65 hlineto
          -68 -37 5 53 hvcurveto
          -70 -5 hlineto
          -93 68 -23 107 vhcurveto
          44 -50 hlineto
          -132 92 -36 109 -58 callgsubr
          62 vlineto
          endchar
        </CharString>
        <CharString name="dvFive">
          66 callgsubr
        </CharString>
        <CharString name="dvFour">
          153 callgsubr
        </CharString>
        <CharString name="dvG">
          -133 196 590 rmoveto
          84 62 -306 -97 callgsubr
          endchar
        </CharString>
        <CharString name="dvGA">
          94 507 -5 callgsubr
          -533 -62 150 -266 hlineto
          60 callsubr
        </CharString>
        <CharString name="dvGH">
          -104 369 144 rmoveto
          -6 -19 -59 -10 -43 hhcurveto
          -72 -44 21 67 hvcurveto
          44 -38 callgsubr
          67 92 callgsubr
          206 62 -379 99 callgsubr
          111 46 55 10 6 25 vhcurveto
          endchar
        </CharString>
        <CharString name="dvGHA">
          107 519 -5 callgsubr
          -545 99 callgsubr
          111 46 38 7 6 25 vhcurveto
          -76 -88 callsubr
          vlineto
          -167 hmoveto
          -449 vlineto
          -6 -20 -41 -7 -43 hhcurveto
          -72 -44 21 67 hvcurveto
          44 -38 callgsubr
          67 92 callgsubr
          endchar
        </CharString>
        <CharString name="dvGH_MA">
          501 748 35 callsubr
          -158 rmoveto
          287 callsubr
          -126 vlineto
          -16 2 -15 3 -13 vhcurveto
          -7 -30 -37 -5 -32 hhcurveto
          -75 -44 21 67 hvcurveto
          44 -38 callgsubr
          67 92 callgsubr
          408 hlineto
          -404 vmoveto
          -90 callgsubr
          359 283 rmoveto
          -940 99 callgsubr
          116 53 56 13 8 32 vhcurveto
          -15 22 32 -8 42 hhcurveto
          100 40 96 callgsubr
        </CharString>
        <CharString name="dvGH_NA">
          490 736 101 callgsubr
          -169 vlineto
          -17 2 -16 4 -14 vhcurveto
          -6 -30 -38 -5 -32 hhcurveto
          -75 -44 21 67 hvcurveto
          44 -38 callgsubr
          67 92 callgsubr
          589 hlineto
          -189 -403 -105 callsubr
          356 308 rmoveto
          -929 99 callgsubr
          116 54 56 12 8 31 vhcurveto
          -15 22 31 -8 39 hhcurveto
          93 43 43 83 hvcurveto
          -76 callsubr
        </CharString>
        <CharString name="dvGH_R">
          -101 366 590 rmoveto
          62 -392 -62 99 vlineto
          0 -7 -23 -44 vvcurveto
          -63 301 callsubr
          -34 vlineto
          -102 70 -47 115 8 8 0 1 9 203 callgsubr
          28 -38 callgsubr
          62 92 callgsubr
          endchar
        </CharString>
        <CharString name="dvGH_RA">
          108 133 263 rmoveto
          138 callsubr
          205 -429 hlineto
          251 callgsubr
          -159 416 rmoveto
          -62 101 vlineto
          211 callsubr
          -65 301 callsubr
          -26 vlineto
          -102 72 -46 111 vhcurveto
          1 hlineto
          -143 -139 rlineto
          96 hlineto
          153 152 rlineto
          2 -103 277 callgsubr
        </CharString>
        <CharString name="dvGH_YA">
          408 654 -103 callsubr
          -522 -316 rmoveto
          33 callsubr
          1 -13 25 39 vvcurveto
          52 92 callgsubr
          319 83 callgsubr
          -38 8 -31 14 -24 vhcurveto
          -9 -38 -44 -7 -34 hhcurveto
          -75 -44 21 67 hvcurveto
          689 415 rmoveto
          -847 -62 99 hlineto
          0 -7 -23 -44 vvcurveto
          -54 vlineto
          -45 11 -34 41 -17 vhcurveto
          -42 -14 -16 -36 -47 vvcurveto
          -44 vlineto
          -101 72 -47 116 58 72 15 15 40 vhcurveto
          -21 35 45 -8 48 -42 callgsubr
        </CharString>
        <CharString name="dvG_BA">
          300 376 334 -62 callgsubr
          163 223 rmoveto
          -739 -91 callgsubr
          354 182 callsubr
          vlineto
          endchar
        </CharString>
        <CharString name="dvG_BHA">
          468 196 590 rmoveto
          64 62 -286 -97 callgsubr
          322 -135 29 callgsubr
        </CharString>
        <CharString name="dvG_BH_YA">
          755 -26 590 rmoveto
          -93 callgsubr
          269 57 62 -279 vlineto
          1026 -489 rmoveto
          -5 -25 -37 -6 -43 -67 callsubr
          -8 23 callsubr
          117 hlineto
          -501 -404 rmoveto
          -39 -10 -23 -60 -59 -10 24 38 vhcurveto
          101 149 callsubr
          130 304 rmoveto
          -62 183 236 callgsubr
          -66 vlineto
          -54 -22 -16 -68 -2 vhcurveto
          17 -14 -27 8 -40 hhcurveto
          -78 117 hlineto
          187 callgsubr
          -42 -47 -83 -23 4 -28 188 callgsubr
          26 23 vvcurveto
          38 10 27 56 57 10 -26 -39 vhcurveto
          -115 -70 vlineto
          -99 -41 -41 -81 hvcurveto
          -104 vlineto
          -80 41 -44 99 100 41 44 80 vhcurveto
          164 73 vlineto
          29 20 -6 -24 hvcurveto
          -60 vlineto
          -132 92 -41 108 46 39 -57 callsubr
          62 vlineto
          endchar
        </CharString>
        <CharString name="dvG_DA">
          284 601 435 190 callsubr
          -723 -62 150 -266 vlineto
          58 callsubr
          333 177 callsubr
          -165 vlineto
          -73 callsubr
          endchar
        </CharString>
        <CharString name="dvG_DHA">
          370 616 652 133 callgsubr
          -533 -91 callgsubr
          144 vlineto
          146 callgsubr
          vlineto
          endchar
        </CharString>
        <CharString name="dvG_DH_VA">
          606 854 18 callsubr
          -258 222 -48 callgsubr
          -505 -91 callgsubr
          142 vlineto
          211 callsubr
          -50 vlineto
          -45 11 -35 41 -17 vhcurveto
          44 callsubr
        </CharString>
        <CharString name="dvG_DH_YA">
          674 919 165 callgsubr
          -43 -67 callsubr
          -8 23 callsubr
          117 hlineto
          -323 62 -10 callsubr
          -505 -91 callgsubr
          142 vlineto
          211 callsubr
          -50 vlineto
          -45 11 -35 41 -17 vhcurveto
          43 callsubr
        </CharString>
        <CharString name="dvG_GA">
          332 745 -5 callgsubr
          -771 -91 callgsubr
          166 -266 vlineto
          60 callsubr
        </CharString>
        <CharString name="dvG_GHA">
          370 616 141 rmoveto
          -6 -20 -41 -7 -43 hhcurveto
          -72 -44 21 67 hvcurveto
          44 -38 callgsubr
          67 92 callgsubr
          205 hlineto
          155 callgsubr
          -809 -91 callgsubr
          141 vlineto
          32 callgsubr
          111 46 38 7 6 25 vhcurveto
          -76 -64 callsubr
        </CharString>
        <CharString name="dvG_JA">
          416 829 -5 callgsubr
          -855 -91 callgsubr
          466 -108 -318 -65 109 vlineto
          0 9 -24 -102 callgsubr
          136 -420 90 callsubr
        </CharString>
        <CharString name="dvG_LA">
          496 909 -5 callgsubr
          -935 -91 callgsubr
          546 -122 vlineto
          8 -19 -21 5 -31 hhcurveto
          -54 -35 -18 -28 -21 hvcurveto
          26 -18 -35 20 -55 hhcurveto
          -97 -46 -51 -83 hvcurveto
          -49 callgsubr
        </CharString>
        <CharString name="dvG_MA">
          448 695 432 -8 callgsubr
          359 283 rmoveto
          -887 -91 callgsubr
          306 217 callgsubr
          123 -369 71 590 95 vlineto
          endchar
        </CharString>
        <CharString name="dvG_NA">
          451 508 187 -105 callsubr
          356 308 rmoveto
          -890 -91 callgsubr
          501 -110 -255 37 callsubr
          -415 72 590 95 hlineto
          endchar
        </CharString>
        <CharString name="dvG_NNA">
          497 542 251 -31 callgsubr
          367 62 rmoveto
          -935 -91 callgsubr
          124 -339 217 callsubr
        </CharString>
        <CharString name="dvG_N_YA">
          749 995 130 callsubr
          79 1 48 278 callgsubr
          223 callgsubr
          -52 -14 0 callsubr
          160 vlineto
          39 14 23 52 142 callsubr
          661 314 rmoveto
          -1188 -91 callgsubr
          611 vlineto
          0 7 254 callgsubr
          61 -11 -53 25 -80 hhcurveto
          -169 hlineto
          -39 callgsubr
          -162 vlineto
          17 callgsubr
          92 44 43 83 vhcurveto
          153 vlineto
          41 -11 27 2 vvcurveto
          42 hlineto
          50 34 -13 -38 hvcurveto
          -100 -68 callsubr
        </CharString>
        <CharString name="dvG_R">
          74 callsubr
          endchar
        </CharString>
        <CharString name="dvG_RA">
          91 503 -5 callgsubr
          -529 -62 150 -228 32 callsubr
          232 140 -302 vlineto
          -264 -288 rlineto
          90 hlineto
          84 89 61 63 31 36 5 11 rlinecurve
          1 hlineto
          -2 -10 -3 -43 -72 vvcurveto
          -74 69 -61 callsubr
        </CharString>
        <CharString name="dvG_R_YA">
          378 625 165 callgsubr
          -43 -67 callsubr
          -8 23 callsubr
          117 hlineto
          155 callgsubr
          -818 -62 150 -252 32 callsubr
          256 241 236 callgsubr
          -66 vlineto
          -58 -26 -14 -81 vhcurveto
          -21 -116 hlineto
          -245 -269 rlineto
          90 hlineto
          91 98 37 39 24 29 15 20 rlinecurve
          -76 28 75 -25 85 -42 callgsubr
        </CharString>
        <CharString name="dvG_SA">
          480 726 350 rmoveto
          -126 hlineto
          -88 callgsubr
          130 hlineto
          155 callgsubr
          -919 -91 callgsubr
          327 vlineto
          -106 callgsubr
          156 -287 -88 callsubr
          hlineto
          endchar
        </CharString>
        <CharString name="dvG_VA">
          302 549 143 -99 callsubr
          165 222 rmoveto
          -740 -91 callgsubr
          351 -97 vlineto
          4 -10 110 callgsubr
          -54 callsubr
        </CharString>
        <CharString name="dvG_YA">
          378 624 -103 callsubr
          167 62 rmoveto
          -817 -91 callgsubr
          240 vlineto
          225 callgsubr
          45 40 313 callgsubr
          -96 72 590 95 vlineto
          endchar
        </CharString>
        <CharString name="dvGx">
          -133 196 590 rmoveto
          84 62 -306 -97 callgsubr
          -150 -257 rmoveto
          -80 callsubr
          113 callsubr
          vhcurveto
          endchar
        </CharString>
        <CharString name="dvGxA">
          96 107 105 rmoveto
          113 callsubr
          -80 callsubr
          hvcurveto
          402 547 rmoveto
          -533 -62 150 -266 hlineto
          60 callsubr
        </CharString>
        <CharString name="dvGx_R">
          74 callsubr
          68 -396 rmoveto
          -80 callsubr
          113 callsubr
          vhcurveto
          endchar
        </CharString>
        <CharString name="dvGx_RA">
          91 263 -30 rmoveto
          113 callsubr
          -80 callsubr
          hvcurveto
          240 682 rmoveto
          -529 -62 150 -228 32 callsubr
          232 140 -302 vlineto
          -264 -288 rlineto
          90 hlineto
          84 89 61 63 31 36 5 11 rlinecurve
          1 hlineto
          -2 -10 -3 -43 -72 vvcurveto
          -74 69 -61 callsubr
        </CharString>
        <CharString name="dvH">
          35 369 27 callsubr
          -244 344 rmoveto
          -45 callgsubr
          156 149 97 62 -474 27 callgsubr
          endchar
        </CharString>
        <CharString name="dvHA">
          35 47 134 rmoveto
          -45 callgsubr
          156 149 97 62 -474 27 callgsubr
          endchar
        </CharString>
        <CharString name="dvHA_mU">
          35 271 -6 rmoveto
          52 9 -19 -38 -38 -8 -20 -56 hvcurveto
          -73 hlineto
          -28 -19 5 36 -35 hvcurveto
          -49 50 rlineto
          -91 hlineto
          90 -94 rlineto
          -48 43 40 -13 44 hhcurveto
          85 hlineto
          91 35 36 86 87 -35 35 -88 hvcurveto
          -55 104 callgsubr
          -474 27 callgsubr
          -54 vlineto
          -85 53 -53 123 vhcurveto
          endchar
        </CharString>
        <CharString name="dvHA_mUU">
          33 382 -8 rmoveto
          47 -39 -34 20 -69 hhcurveto
          -19 104 callgsubr
          -472 -62 303 42 callgsubr
          -54 vlineto
          -57 23 -36 49 -19 vhcurveto
          -24 -15 -10 -26 -40 vvcurveto
          -81 33 -36 86 10 79 2 0 vhcurveto
          62 vlineto
          0 -78 -2 -7 -47 -9 20 35 36 7 19 51 vhcurveto
          27 hlineto
          52 16 -11 -41 34 hvcurveto
          95 -116 rlineto
          85 hlineto
          endchar
        </CharString>
        <CharString name="dvHA_mvR">
          87 117 201 rmoveto
          38 19 22 61 vhcurveto
          126 hlineto
          37 19 -5 -37 -37 -19 -4 -37 hvcurveto
          -6 hlineto
          -77 -47 -24 -81 -86 58 -19 88 42 43 6 8 32 hvcurveto
          60 vlineto
          -7 -34 -38 -5 -39 hhcurveto
          -58 -25 5 38 36 19 6 36 hvcurveto
          8 hlineto
          81 42 28 76 76 -42 28 -81 hvcurveto
          -129 hlineto
          -59 292 callgsubr
          1 vlineto
          37 15 22 59 vhcurveto
          203 149 103 62 -526 -62 351 -85 -129 hlineto
          -101 -46 -38 -81 hvcurveto
          -6 vlineto
          1 -46 17 -28 32 -15 rrcurveto
          -32 -14 -19 -28 -46 vvcurveto
          -221 vlineto
          -91 67 -54 120 59 42 7 10 28 vhcurveto
          60 vlineto
          -11 -38 -33 -5 -55 hhcurveto
          -83 -38 30 56 hvcurveto
          endchar
        </CharString>
        <CharString name="dvH_LA">
          617 431 25 callgsubr
        </CharString>
        <CharString name="dvH_MA">
          247 494 183 rmoveto
          -123 18 hlineto
          77 -39 39 -91 vhcurveto
          -36 hlineto
          -59 -17 21 40 hvcurveto
          2 vlineto
          40 14 22 60 vhcurveto
          164 148 127 hlineto
          166 62 rmoveto
          -686 -62 321 -85 -92 hlineto
          -100 -46 -37 -84 hvcurveto
          -5 vlineto
          -49 17 -28 34 -16 vhcurveto
          -35 -16 -18 -29 -46 vvcurveto
          -77 vlineto
          -85 38 -56 120 vhcurveto
          64 vlineto
          -74 -12 35 38 hvcurveto
          82 vlineto
          38 21 22 60 vhcurveto
          28 hlineto
          57 9 -22 -38 hvcurveto
          -133 69 58 123 -135 71 604 95 vlineto
          endchar
        </CharString>
        <CharString name="dvH_NA">
          575 821 101 callgsubr
          -42 -233 vlineto
          -59 292 callgsubr
          11 vlineto
          37 15 22 59 vhcurveto
          156 149 470 hlineto
          -189 -403 -105 callsubr
          356 308 rmoveto
          -1014 84 callsubr
          228 -64 hlineto
          -83 44 -43 92 93 43 43 83 vhcurveto
          -76 callsubr
        </CharString>
        <CharString name="dvH_NNA">
          644 690 251 -31 callgsubr
          -493 -277 rmoveto
          -59 292 callgsubr
          11 vlineto
          37 15 22 59 vhcurveto
          156 149 117 -277 hlineto
          589 339 rmoveto
          -1083 84 callsubr
          266 hlineto
          -82 126 callsubr
          339 129 -590 169 callsubr
        </CharString>
        <CharString name="dvH_R">
          67 209 -61 68 callgsubr
          97 505 8 callsubr
        </CharString>
        <CharString name="dvH_RA">
          67 372 444 8 callsubr
        </CharString>
        <CharString name="dvH_VA">
          426 671 57 callgsubr
        </CharString>
        <CharString name="dvH_YA">
          237 483 150 rmoveto
          -5 -17 -32 -5 -34 hhcurveto
          -39 hlineto
          7 12 4 15 20 vvcurveto
          20 vlineto
          77 -42 39 -97 vhcurveto
          -35 hlineto
          -60 -16 21 40 hvcurveto
          3 vlineto
          40 14 22 60 vhcurveto
          167 141 120 hlineto
          155 callgsubr
          -676 -62 316 -78 -94 hlineto
          -101 -46 -38 -84 hvcurveto
          -3 vlineto
          -50 18 -29 34 -16 vhcurveto
          -36 -17 -17 -29 -47 vvcurveto
          -81 vlineto
          -85 38 -56 119 vhcurveto
          64 vlineto
          -73 -12 35 38 hvcurveto
          87 vlineto
          38 19 24 63 vhcurveto
          29 hlineto
          63 8 -23 -40 hvcurveto
          -22 vlineto
          -29 -15 -9 -37 vhcurveto
          -65 146 vlineto
          39 32 5 5 16 hvcurveto
          -98 72 603 95 vlineto
          endchar
        </CharString>
        <CharString name="dvI">
          13 118 170 rmoveto
          -69 -237 69 99 hlineto
          -5 20 32 -4 37 hhcurveto
          111 44 43 85 hvcurveto
          38 vlineto
          83 -48 42 -103 vhcurveto
          -23 hlineto
          -60 -16 24 37 hvcurveto
          5 vlineto
          37 16 23 60 vhcurveto
          146 150 92 62 -452 -62 288 -86 -74 hlineto
          -100 206 callsubr
          -7 vlineto
          -83 49 -40 99 vhcurveto
          23 hlineto
          63 16 -26 -37 hvcurveto
          -35 vlineto
          -42 -25 -22 -64 -34 -27 3 4 -22 vhcurveto
          endchar
        </CharString>
        <CharString name="dvII">
          13 334 440 rmoveto
          150 92 62 -97 vlineto
          -16 31 -17 42 31 vvcurveto
          49 34 15 41 13 13 -2 -1 10 vhcurveto
          64 vlineto
          1 -10 -17 3 -26 hhcurveto
          -66 -64 -30 -90 -42 17 -40 17 -31 38 callsubr
          endchar
        </CharString>
        <CharString name="dvII_Anusvara">
          14 407 898 rmoveto
          1 -10 -17 3 -22 hhcurveto
          -73 -65 -31 -93 -46 18 -46 20 -34 38 callsubr
          146 150 92 62 -97 hlineto
          -18 34 -18 49 33 vvcurveto
          53 35 19 44 12 13 -2 -1 10 vhcurveto
          -9 -51 244 callgsubr
        </CharString>
        <CharString name="dvJ">
          -43 421 -5 callgsubr
          -447 -62 447 hlineto
          -108 vmoveto
          -325 -65 109 hlineto
          0 9 -24 -102 callgsubr
          143 hlineto
          endchar
        </CharString>
        <CharString name="dvJA">
          168 286 353 78 callgsubr
        </CharString>
        <CharString name="dvJH">
          16 207 16 rmoveto
          175 callgsubr
          161 60 -290 hlineto
          131 callgsubr
          138 62 -513 -33 callgsubr
          endchar
        </CharString>
        <CharString name="dvJHA">
          218 202 251 rmoveto
          98 callgsubr
          62 -657 -62 297 -85 -74 hlineto
          -100 206 callsubr
          -8 vlineto
          -83 48 -40 99 vhcurveto
          -1 63 rmoveto
          219 callgsubr
          146 150 121 -276 hlineto
          endchar
        </CharString>
        <CharString name="dvJH_MA">
          608 854 35 callsubr
          -158 rmoveto
          -70 hlineto
          -97 -42 -41 -77 -1 hvcurveto
          -254 hlineto
          131 callgsubr
          312 hlineto
          -404 vmoveto
          -90 callgsubr
          359 283 rmoveto
          -1046 -33 callgsubr
          175 callgsubr
          125 -70 hlineto
          -23 callsubr
        </CharString>
        <CharString name="dvJH_NA">
          611 857 101 callgsubr
          -41 -269 vlineto
          131 callgsubr
          508 hlineto
          -189 -403 -105 callsubr
          356 308 rmoveto
          -1050 -33 callgsubr
          175 callgsubr
          140 -68 hlineto
          -83 44 -43 92 93 43 43 83 vhcurveto
          -76 callsubr
        </CharString>
        <CharString name="dvJH_R">
          66 533 211 rmoveto
          -263 -298 rlineto
          84 hlineto
          99 109 37 41 39 52 4 12 rlinecurve
          -181 59 rmoveto
          31 -9 23 -18 14 vhcurveto
          208 60 -331 hlineto
          -58 -16 23 38 hvcurveto
          6 vlineto
          37 17 22 59 vhcurveto
          196 150 132 62 -558 -62 354 -85 -124 hlineto
          -100 206 callsubr
          -8 vlineto
          -84 49 -39 94 vhcurveto
          4 hlineto
          60 16 -27 -36 hvcurveto
          -43 201 callsubr
          40 87 hvcurveto
          endchar
        </CharString>
        <CharString name="dvJH_RA">
          262 352 186 rmoveto
          31 -9 23 -18 14 vhcurveto
          175 -81 hlineto
          -230 -260 rlineto
          84 hlineto
          99 109 37 41 21 35 4 11 rlinecurve
          1 hlineto
          -2 -16 -2 -25 -26 vvcurveto
          -45 68 593 95 62 -701 -62 354 -85 -124 vlineto
          -100 206 callsubr
          -8 vlineto
          -84 51 -39 94 vhcurveto
          2 hlineto
          60 16 -27 -36 hvcurveto
          -41 201 callsubr
          41 86 hvcurveto
          -148 296 rmoveto
          196 150 108 -276 -306 hlineto
          -58 1 -16 22 38 vvcurveto
          6 vlineto
          37 17 22 59 vhcurveto
          endchar
        </CharString>
        <CharString name="dvJH_YA">
          530 776 -103 callsubr
          -309 -205 rmoveto
          -71 -270 vlineto
          131 callgsubr
          239 hlineto
          -6 callgsubr
          -58 -26 -14 -80 vhcurveto
          454 267 rmoveto
          -969 -33 callgsubr
          175 callgsubr
          141 hlineto
          -129 2 92 -40 107 -42 callgsubr
        </CharString>
        <CharString name="dvJ_BA">
          397 473 334 -62 callgsubr
          163 223 rmoveto
          -836 -62 673 263 callgsubr
          -43 -35 -8 -15 -25 hvcurveto
          -362 -65 109 hlineto
          0 9 -24 -102 callgsubr
          132 hlineto
          -5 -14 -2 -16 -18 vvcurveto
          -170 105 callsubr
        </CharString>
        <CharString name="dvJ_DA">
          379 696 435 190 callsubr
          -818 -62 650 -89 -70 vlineto
          -38 -31 -6 -11 -23 hvcurveto
          -366 -66 109 hlineto
          0 9 -24 callgsubr
          -167 -45 callsubr
          171 -35 callgsubr
          130 hlineto
          -4 -14 -2 -17 -18 vvcurveto
          -165 vlineto
          -73 callsubr
          endchar
        </CharString>
        <CharString name="dvJ_DDA">
          369 681 343 callgsubr
          -807 -62 635 -85 -69 vlineto
          -44 -34 -8 -15 -24 hvcurveto
          -342 -65 109 hlineto
          0 9 -24 -102 callgsubr
          117 hlineto
          -3 -11 -1 -13 -14 vvcurveto
          -62 callsubr
          129 callgsubr
        </CharString>
        <CharString name="dvJ_JA">
          525 938 -5 callgsubr
          -964 -62 797 -108 -675 -65 109 hlineto
          0 9 -24 -102 callgsubr
          284 hlineto
          0 9 -27 -102 callgsubr
          136 -420 90 callsubr
        </CharString>
        <CharString name="dvJ_JHA">
          559 805 314 rmoveto
          -269 hlineto
          219 callgsubr
          146 150 121 hlineto
          155 callgsubr
          -998 -62 638 -85 -74 hlineto
          -44 -33 -8 -15 -24 hvcurveto
          -341 -65 109 hlineto
          0 9 -24 -102 callgsubr
          116 hlineto
          -3 -11 -1 -13 -14 vvcurveto
          -8 vlineto
          -83 48 -40 99 vhcurveto
          6 hlineto
          98 callgsubr
          hlineto
          endchar
        </CharString>
        <CharString name="dvJ_J_NYA">
          590 96 417 rmoveto
          109 hlineto
          0 9 -24 -102 callgsubr
          143 62 -325 hlineto
          907 170 rmoveto
          -1029 -62 862 -108 -327 -62 102 callsubr
          136 -420 73 353 callgsubr
        </CharString>
        <CharString name="dvJ_J_VA">
          755 1002 143 -99 callsubr
          165 222 rmoveto
          -1193 -62 1026 53 callsubr
          -40 -32 -8 -15 -24 hvcurveto
          -719 -65 109 hlineto
          0 9 -24 -102 callgsubr
          284 hlineto
          0 9 -27 -102 callgsubr
          132 hlineto
          -5 -15 -2 -16 -18 vvcurveto
          -169 vlineto
          -54 callsubr
        </CharString>
        <CharString name="dvJ_J_YA">
          830 1075 -103 callsubr
          167 62 rmoveto
          -1268 -62 913 163 callsubr
          -50 -5 vhcurveto
          65 -3 -43 30 -90 hhcurveto
          -595 -65 109 hlineto
          0 9 -24 -102 callgsubr
          284 hlineto
          0 9 -27 -102 callgsubr
          49 hlineto
          57 21 -8 -32 4 hvcurveto
          -122 -68 callsubr
        </CharString>
        <CharString name="dvJ_KA">
          558 970 590 rmoveto
          62 -996 -62 644 -451 vlineto
          338 callgsubr
          -18 26 39 hvcurveto
          179 vlineto
          25 callsubr
          -39 -31 -7 -15 -23 hvcurveto
          -356 -65 109 hlineto
          0 9 -24 -102 callgsubr
          129 hlineto
          -3 -13 -2 -15 -16 vvcurveto
          -82 callsubr
          vlineto
          endchar
        </CharString>
        <CharString name="dvJ_MA">
          545 791 432 -8 callgsubr
          359 283 rmoveto
          -983 -62 624 206 callgsubr
          -17 -16 -1 -3 -14 hvcurveto
          37 -16 -46 17 -70 hhcurveto
          -253 -65 109 hlineto
          0 9 -24 -102 callgsubr
          60 hlineto
          42 27 -5 -15 12 hvcurveto
          -21 -21 -10 -30 -39 vvcurveto
          -126 vlineto
          -23 callsubr
        </CharString>
        <CharString name="dvJ_NA">
          556 613 187 -105 callsubr
          356 308 rmoveto
          -995 -62 828 310 callgsubr
          -46 -34 -11 -21 -23 hvcurveto
          23 -22 -38 11 -48 hhcurveto
          -240 -65 109 hlineto
          0 9 -24 -102 callgsubr
          64 hlineto
          39 23 -10 -17 11 hvcurveto
          -3 -12 -1 -12 -14 vvcurveto
          -98 callgsubr
          130 -415 72 590 95 hlineto
          endchar
        </CharString>
        <CharString name="dvJ_NY">
          11 139 420 rmoveto
          102 callsubr
          175 62 -366 hlineto
          -165 170 rmoveto
          -62 531 62 vlineto
          endchar
        </CharString>
        <CharString name="dvJ_NYA">
          221 -26 -5 callgsubr
          -62 492 -108 -327 -62 119 vlineto
          -24 callsubr
          136 -420 277 callgsubr
        </CharString>
        <CharString name="dvJ_NY_YA">
          522 768 245 rmoveto
          -63 -7 -28 -30 -81 hhcurveto
          -92 -29 37 75 hvcurveto
          80 vlineto
          79 2 48 35 82 vvcurveto
          60 vlineto
          38 -11 22 -13 7 vhcurveto
          134 hlineto
          155 callgsubr
          -961 -62 549 hlineto
          49 15 -25 -42 hvcurveto
          -52 vlineto
          -47 -17 -18 -50 -4 vhcurveto
          62 -3 -60 18 -71 hhcurveto
          -247 -62 102 callsubr
          51 hlineto
          57 21 -8 -45 hvcurveto
          -109 vlineto
          -132 83 -41 108 63 35 15 21 20 vhcurveto
          -121 -64 callsubr
        </CharString>
        <CharString name="dvJ_R">
          -31 145 -48 40 callgsubr
        </CharString>
        <CharString name="dvJ_RA">
          177 424 28 callgsubr
          endchar
        </CharString>
        <CharString name="dvJ_TA">
          411 823 -5 callgsubr
          -849 -62 682 -100 hlineto
          143 callsubr
          -38 -30 -7 -13 -24 hvcurveto
          -376 -65 109 hlineto
          0 9 -24 -102 callgsubr
          142 hlineto
          -6 -16 -3 -18 -20 vvcurveto
          -240 vlineto
          -71 callgsubr
        </CharString>
        <CharString name="dvJ_TTA">
          368 688 434 238 callgsubr
          -804 -62 642 -90 -52 vlineto
          -37 -30 -6 -12 -24 hvcurveto
          -377 -65 109 hlineto
          0 9 -24 -102 callgsubr
          141 hlineto
          -5 -16 -3 -18 -20 vvcurveto
          -223 vlineto
          -60 callgsubr
        </CharString>
        <CharString name="dvJ_VA">
          398 646 143 -99 callsubr
          165 222 rmoveto
          -837 -62 670 53 callsubr
          -40 -32 -8 -15 -24 hvcurveto
          -363 -65 109 hlineto
          0 9 -24 -102 callgsubr
          133 hlineto
          -5 -15 -2 -16 -18 vvcurveto
          -169 vlineto
          -54 callsubr
        </CharString>
        <CharString name="dvJ_YA">
          472 718 270 callgsubr
          -40 37 75 hvcurveto
          80 vlineto
          80 2 48 35 82 vvcurveto
          60 220 callsubr
          -911 -62 556 hlineto
          0 7 -24 callgsubr
          -52 vlineto
          -47 -17 -17 -48 -5 vhcurveto
          62 -5 -58 18 -72 hhcurveto
          -241 -65 109 hlineto
          0 9 -24 -102 callgsubr
          48 hlineto
          58 25 -7 -45 hvcurveto
          -110 -68 callsubr
        </CharString>
        <CharString name="dvJx">
          -43 43 -66 173 callsubr
          378 718 rmoveto
          -447 -62 447 hlineto
          -108 vmoveto
          -325 -65 109 hlineto
          0 9 -24 -102 callgsubr
          143 hlineto
          endchar
        </CharString>
        <CharString name="dvJxA">
          168 -4 -49 rmoveto
          -80 callsubr
          113 callsubr
          vhcurveto
          290 402 78 callgsubr
        </CharString>
        <CharString name="dvJx_JxA">
          525 31 5 rmoveto
          113 callsubr
          141 callgsubr
          hvcurveto
          361 hmoveto
          113 callsubr
          234 callsubr
          -11 19 -34 hvcurveto
          546 647 rmoveto
          -964 -62 797 -108 -675 -65 109 hlineto
          0 9 -24 -102 callgsubr
          284 hlineto
          0 9 -27 -102 callgsubr
          136 -420 90 callsubr
        </CharString>
        <CharString name="dvJx_R">
          -7 2 9 rmoveto
          -80 callsubr
          113 callsubr
          vhcurveto
          157 -57 40 callgsubr
        </CharString>
        <CharString name="dvJx_RA">
          191 438 28 callgsubr
          -296 -403 rmoveto
          -80 callsubr
          113 callsubr
          vhcurveto
          endchar
        </CharString>
        <CharString name="dvJx_YA">
          472 31 -1 rmoveto
          52 callsubr
          687 164 rmoveto
          -5 -25 -37 -6 -44 hhcurveto
          -92 -40 37 75 hvcurveto
          80 vlineto
          80 2 48 35 82 vvcurveto
          60 220 callsubr
          -911 -62 556 hlineto
          0 7 -24 callgsubr
          -52 vlineto
          -47 -17 -17 -48 -5 vhcurveto
          62 -5 -58 18 -72 hhcurveto
          -241 -65 109 hlineto
          0 9 -24 callgsubr
          -163 -45 callsubr
          167 -35 callgsubr
          48 hlineto
          58 25 -7 -45 hvcurveto
          -110 -68 callsubr
        </CharString>
        <CharString name="dvK">
          16 472 354 rmoveto
          67 21 hlineto
          77 -30 285 callsubr
          238 62 -595 -62 286 -451 vlineto
          -106 callsubr
          endchar
        </CharString>
        <CharString name="dvKA">
          200 260 139 rmoveto
          -4 -14 -25 -5 -29 hhcurveto
          -60 -18 26 39 hvcurveto
          179 vlineto
          40 18 26 60 8 10 -1 -1 6 vhcurveto
          63 vlineto
          2 -6 -12 1 -11 hhcurveto
          -96 -47 -45 -83 hvcurveto
          -82 callsubr
          281 62 -638 -62 286 vlineto
          endchar
        </CharString>
        <CharString name="dvKH">
          143 115 261 -20 callgsubr
        </CharString>
        <CharString name="dvKHA">
          350 596 180 callgsubr
          -788 -103 callgsubr
          280 -97 hlineto
          4 -20 -28 5 -30 hhcurveto
          -99 97 callgsubr
          99 327 callgsubr
          19 115 callgsubr
        </CharString>
        <CharString name="dvKH_KHA">
          900 1147 196 rmoveto
          -4 -11 -29 47 callsubr
          -697 -57 -8 callsubr
          863 400 rmoveto
          -1339 -103 callgsubr
          481 hlineto
          0 12 -24 callgsubr
          -121 vlineto
          -51 -20 -31 -61 -21 -23 191 callsubr
          46 vlineto
          83 -40 46 -103 -102 -38 -46 -83 vhcurveto
          -120 vlineto
          259 callsubr
          31 26 3 8 20 vhcurveto
          -97 19 84 -42 117 hhcurveto
          51 54 7 9 34 hvcurveto
          68 vlineto
          -9 -31 -47 -9 -58 hhcurveto
          -96 -61 33 84 hvcurveto
          82 vlineto
          -3 18 21 -3 27 hhcurveto
          99 55 callsubr
          -29 hhcurveto
          -100 -37 -47 -83 hvcurveto
          -120 vlineto
          -83 39 301 callgsubr
          95 vlineto
          endchar
        </CharString>
        <CharString name="dvKH_MA">
          750 997 432 rmoveto
          -123 158 123 hlineto
          -193 -404 242 callgsubr
          -354 3 -8 callsubr
          713 400 rmoveto
          -1189 -103 callgsubr
          488 206 callgsubr
          -31 -25 -4 -8 -19 hvcurveto
          53 -14 -41 28 -81 36 callgsubr
          33 26 4 8 20 vhcurveto
          -49 14 41 -26 77 hhcurveto
          99 41 96 callgsubr
        </CharString>
        <CharString name="dvKH_NA">
          741 798 187 -105 callsubr
          -348 28 -8 callsubr
          704 400 rmoveto
          -1180 -103 callgsubr
          671 310 callgsubr
          -40 -31 -8 -16 -22 hvcurveto
          29 -20 -36 16 -60 36 callgsubr
          33 26 4 10 20 vhcurveto
          -52 15 43 -26 72 hhcurveto
          93 43 43 83 hvcurveto
          -76 callsubr
        </CharString>
        <CharString name="dvKH_R">
          145 115 callsubr
          346 62 -688 -49 callsubr
          481 73 -29 callsubr
        </CharString>
        <CharString name="dvKH_RA">
          349 596 196 -35 callsubr
        </CharString>
</ttFont>
